<svg width="102" height="115" viewBox="0 0 102 115" fill="none" xmlns="http://www.w3.org/2000/svg">
<path d="M101.726 47.4633C100.877 45.764 98.8503 46.5675 97.5571 47.1968C95.3719 48.2627 93.37 49.7508 91.4271 51.202C86.1321 55.1478 81.0794 59.4216 76.0206 63.6563C75.3587 64.2118 74.7009 64.7714 74.0391 65.3289C69.2756 68.8607 64.6872 72.663 60.1437 76.4263C49.1036 85.5846 38.2122 94.9397 27.6038 104.602C27.4001 104.785 27.1965 104.973 27.0091 105.17L26.6833 105.434C26.5876 105.51 26.5074 105.603 26.447 105.709C25.4288 106.078 24.3799 106.408 23.327 106.689C22.5878 106.894 19.2539 108.001 19.5167 106.306C19.6388 105.498 20.3639 104.682 20.8119 104.03C21.3726 103.21 21.9449 102.404 22.5287 101.61C23.6651 100.057 24.8449 98.5411 26.0682 97.0612C26.6303 96.8467 27.1883 96.626 27.7423 96.3991C34.9231 93.4905 41.55 89.6759 47.4234 84.5905C55.366 77.7136 62.3065 69.7298 69.186 61.8013C72.7785 57.6608 76.339 53.493 79.8677 49.2978C81.5376 47.3218 83.2728 45.3807 84.8776 43.3535C85.8397 42.0826 86.524 40.6213 86.8856 39.0654C87.1748 37.8725 87.3479 36.1958 86.1423 35.4353C85.5842 35.0828 84.9203 35.1012 84.3094 35.2406C83.006 35.5337 81.7698 36.3167 80.6538 37.0259C76.4157 39.7132 72.5483 43.0338 68.7603 46.2949C63.4368 50.8679 58.2701 55.6254 53.1706 60.4382C47.7126 65.6022 42.3402 70.8537 37.0534 76.1926C36.5911 76.66 36.1328 77.1294 35.6726 77.5988C39.9799 72.5502 44.1344 67.3623 48.2218 62.1498C55.2621 53.1698 62.335 43.991 68.0231 34.0681C69.6972 31.1431 71.6604 27.8348 72.0636 24.4138C72.3019 22.3866 71.2755 20.3778 69.0088 20.5951C66.6484 20.8185 64.4897 22.7719 62.7973 24.2703C59.8952 26.8407 57.2987 29.7636 54.7774 32.7112C47.8796 40.7954 41.5887 49.4146 35.4669 58.1036C34.3196 59.7338 33.1798 61.3695 32.0475 63.0107C33.875 59.6122 35.6794 56.2027 37.4607 52.7824C43.5072 42.4004 49.904 32.1619 54.2622 20.9025C54.9403 19.148 57.9157 12.435 53.977 12.2936C52.6696 12.2485 51.4925 13.1012 50.5333 13.8965C49.0445 15.1263 47.7839 16.6493 46.5905 18.1641C43.1284 22.5526 40.1509 27.3121 37.2672 32.0901C34.1126 37.3149 31.1168 42.6361 28.1883 47.9921C25.2801 53.3215 22.3923 58.6508 19.7061 64.0909C18.8181 65.8885 17.9444 67.7026 17.1013 69.5309C18.9953 64.8643 20.8214 60.1704 22.5796 55.4491C27.2148 42.9948 31.4549 30.272 34.4181 17.295C34.837 15.4915 35.1498 13.6647 35.3549 11.8242C35.5239 10.2643 35.7866 8.16332 34.8946 6.76129C34.1268 5.55603 32.5872 5.70976 31.4671 6.2796C30.2859 6.89452 29.4041 7.99729 28.6954 9.09391C26.5448 12.4248 25.3738 16.4607 24.2883 20.2425C22.991 24.752 21.9483 29.3414 20.8567 33.9103C18.7244 42.8267 16.0769 51.6304 13.464 60.4136C11.4275 67.2229 9.42149 74.067 7.07743 80.782C7.55805 78.3039 7.99184 75.8175 8.42155 73.3353C9.60954 66.4522 10.6651 59.5514 11.5884 52.6328C12.5863 45.2536 13.4742 37.8745 14.1585 30.4626C14.7267 24.2928 15.2073 18.0903 15.2053 11.8898C15.2315 9.7363 15.1241 7.58328 14.8835 5.4433C14.7084 4.04946 14.5068 2.49575 13.7634 1.27205C13.1708 0.296362 11.8348 -0.535841 10.8389 0.427544C9.87972 1.35403 9.55387 3.07583 9.22802 4.30978C7.66395 10.1844 6.83304 16.2967 5.94511 22.3128C4.7354 30.4893 3.70491 38.6924 2.73959 46.9098C1.92497 53.9672 1.14701 61.0327 0.523825 68.1105C0.32017 70.4021 0.116515 72.6999 0.0330164 74.9997C-0.0573686 77.8507 0.0378728 80.7046 0.318132 83.5431C0.505494 85.5129 0.713222 87.5462 1.22236 89.473C1.24272 90.4077 1.3751 91.3178 1.7763 92.0352C2.27322 92.9166 3.05321 92.9658 3.65807 92.5435L3.75175 92.523C4.45436 92.3181 4.88407 91.5535 5.21399 90.955C5.2649 90.8627 5.30971 90.7664 5.35858 90.6721C5.17122 91.287 4.98182 91.9163 4.79446 92.5374C4.74448 92.7102 4.74214 92.8934 4.7877 93.0675C4.83326 93.2415 4.925 93.3998 5.0531 93.5254C6.43592 94.6384 8.00406 94.1731 9.31152 93.2261C9.30414 93.5193 9.39132 93.8069 9.55998 94.046C9.69643 94.9992 10.1139 95.8785 10.9998 96.4135C11.6394 96.7898 12.3855 96.9406 13.1199 96.8419C13.2152 96.8524 13.3111 96.8579 13.407 96.8583C13.307 97.2959 13.3648 97.755 13.5699 98.1537C13.7726 98.4973 14.0706 98.7737 14.4273 98.949C14.5585 99.0451 14.7108 99.1077 14.8713 99.1315C16.0932 99.5291 17.7387 99.2954 18.7509 99.1315C20.0288 98.9321 21.2917 98.6451 22.5307 98.2726C22.3923 98.4489 22.2538 98.6252 22.1234 98.8035C20.8832 100.423 19.6796 102.083 18.5513 103.772C17.6899 105.07 16.8753 106.892 18.085 108.261C19.0686 109.378 20.6592 109.341 21.9992 109.091C22.9426 108.911 23.8759 108.681 24.7954 108.402C24.5555 109.029 24.4705 109.704 24.5474 110.371C24.6244 111.037 24.8612 111.675 25.2373 112.229C27.2209 115.304 31.0476 115.202 34.245 114.79C35.5158 114.626 35.5321 112.59 34.245 112.756C31.8174 113.07 27.9113 113.576 26.7097 110.706C26.2047 109.503 26.8564 108.327 27.6364 107.427C27.8217 107.357 28.005 107.281 28.1903 107.207C30.5547 107.158 32.6524 105.568 34.6075 104.377C36.9393 102.942 39.6377 102.165 42.1427 101.097C47.3757 98.8412 52.4284 96.183 57.2559 93.1462C66.8645 87.1054 75.5259 79.6583 82.9551 71.0498C84.8749 68.821 86.7044 66.5192 88.4436 64.1442C90.5371 62.242 92.6192 60.3248 94.6896 58.3926C96.5225 56.679 98.3554 54.9244 99.9154 52.9382C100.999 51.5382 102.659 49.3286 101.726 47.4633ZM11.5599 94.0419C11.8342 93.9385 12.1009 93.8159 12.3582 93.675C12.2747 93.841 12.1912 94.005 12.1138 94.1711C12.0527 94.3002 11.9855 94.4375 11.9102 94.581C11.7489 94.4349 11.6282 94.2491 11.5599 94.0419ZM48.7716 25.6334C47.4845 28.3616 46.1486 31.0673 44.8167 33.773C42.0673 39.3538 39.2603 44.9045 36.3956 50.4252L36.1593 50.8782C29.8053 61.9468 23.9645 73.5669 15.8733 83.4549C18.3171 78.761 20.7732 74.0725 23.2415 69.3895C28.1618 60.0536 33.112 50.7326 38.092 41.4267C40.3933 37.1223 42.6355 32.7645 45.0366 28.5133C46.7473 25.4817 48.6087 22.5342 50.8672 19.9043C50.4477 21.8844 49.6412 23.7845 48.7716 25.6334ZM12.1688 90.6209C12.8062 89.969 13.4274 89.3008 14.0404 88.6429C15.4252 87.1506 16.749 85.599 18.0198 84.0063C17.1199 85.5357 16.1247 87.0063 15.0403 88.4092C14.2155 89.4546 13.0547 90.9816 11.7208 91.7954C11.8454 91.3948 11.995 91.0025 12.1688 90.6209ZM66.5812 26.6685V26.728C66.5762 26.7064 66.5762 26.6839 66.5812 26.6624V26.6685ZM27.5692 83.4467C27.0946 84.0617 26.6079 84.6766 26.1069 85.2792C25.2231 86.2016 24.3182 87.1049 23.3922 87.989C21.7552 89.5837 19.9835 91.0322 18.0972 92.3181L18.0035 92.3796C19.6653 89.6431 21.4493 86.9785 23.2496 84.3343C28.8379 76.123 34.7032 68.0982 40.6519 60.1472C46.4724 52.3683 52.3845 44.6469 58.543 37.1325C60.6182 34.599 62.7138 32.0676 64.9479 29.6714C65.2168 29.3844 65.4876 29.0995 65.7626 28.8187C64.8699 30.506 63.8882 32.144 62.8218 33.7258C59.492 38.8318 55.8792 43.7512 52.2847 48.6706C48.2116 54.2521 44.0896 59.7987 40.0654 65.4232C35.8314 71.3573 32.0618 77.6746 27.5692 83.4324V83.4467ZM44.9938 84.0104C40.1774 88.0751 34.6645 91.2624 28.8827 93.7447C28.9947 93.6156 29.1047 93.4844 29.2188 93.3573L30.3287 92.7239C35.4954 89.7538 40.5114 86.4127 45.114 82.6186C47.7411 80.4541 50.1463 78.021 52.5759 75.6495C55.685 72.6022 58.7575 69.5166 61.7933 66.3928C64.134 63.9959 66.4658 61.5922 68.7889 59.1817C67.7434 60.3883 66.6966 61.5922 65.6485 62.7934C59.1478 70.2115 52.5474 77.6357 44.9938 84.0104ZM82.6414 40.201C82.6598 40.201 82.6516 40.244 82.6414 40.2789C82.6411 40.2734 82.6411 40.2679 82.6414 40.2625C82.6407 40.2679 82.6407 40.2734 82.6414 40.2789C82.6321 40.2538 82.6321 40.2261 82.6414 40.201ZM79.4339 44.9462C75.4035 49.6114 70.9639 53.9548 66.6973 58.3987C60.9828 64.343 55.2295 70.2586 49.3052 75.9979C45.3247 79.893 41.0063 83.4224 36.4017 86.5439C35.6101 87.0768 34.8104 87.6036 34.0026 88.1243C40.1123 81.6696 46.6292 75.5675 52.9425 69.3178C60.4777 61.8362 67.9946 54.3054 75.7762 47.0718C77.7395 45.2454 79.7862 43.2285 81.9042 41.6584C81.1754 42.8232 80.3489 43.9231 79.4339 44.9462ZM85.069 37.1715C85.2441 37.1571 85.0934 37.2165 85.069 37.1715V37.1715ZM38.7498 77.361C48.5578 67.4709 58.6061 57.7735 69.1269 48.6419C72.9006 45.3623 76.7293 42.0827 80.8819 39.293C81.5356 38.8564 82.1995 38.4321 82.8858 38.0487C83.1791 37.8848 83.4764 37.7297 83.7778 37.5835C83.9708 37.4758 84.1759 37.3918 84.3888 37.3334C84.5645 37.2748 84.7433 37.2263 84.9244 37.1879L85.0242 37.1756H85.0527C85.0527 37.2985 85.0771 37.7905 85.0527 37.9401C84.9669 38.538 84.8089 39.1231 84.5823 39.6824C84.5405 39.5561 84.4845 39.4351 84.4153 39.3217C83.1709 37.2719 80.0123 40.5904 79.0449 41.4145C71.306 47.9921 64.1781 55.3528 56.9585 62.4859C52.914 66.483 48.8741 70.4841 44.8391 74.4893C39.8169 79.4518 34.7215 84.3425 29.9397 89.5427C29.2609 90.282 28.5874 91.0288 27.9194 91.7831C25.712 93.0129 23.4438 94.1287 21.1235 95.1262C19.9106 95.6549 18.6707 96.1181 17.4088 96.5139C18.3189 95.7005 19.2706 94.9356 20.26 94.2223C22.3821 92.6583 24.608 91.2358 26.7036 89.639C28.6526 88.155 30.2289 86.1258 31.9213 84.3609C34.1777 82.0051 36.4539 79.6718 38.7498 77.361ZM47.0609 45.5898C52.191 38.8133 57.4758 31.838 63.7769 26.1007C64.7153 25.212 65.7263 24.4043 66.7991 23.6861C67.2217 23.4075 67.6619 23.1569 68.1168 22.9359C68.3775 22.8088 68.184 22.899 68.2451 22.8765C68.3062 22.8539 68.4223 22.8047 68.5139 22.7781C68.7176 22.7166 68.9009 22.6653 69.1004 22.6223L69.3408 22.612H69.465C69.4988 22.6296 69.5353 22.6414 69.5729 22.6469C69.6107 22.6605 69.6513 22.6647 69.691 22.6592C69.7149 22.6844 69.74 22.7084 69.7664 22.7309L69.799 22.7555C69.8173 22.7699 69.8621 22.817 69.8988 22.856C69.931 22.8996 69.9577 22.9471 69.9782 22.9974C69.9782 22.9974 69.9782 23.0199 69.9782 23.0343C70.0026 23.1265 70.0332 23.2188 70.0495 23.3151C70.0495 23.3479 70.0597 23.3684 70.0637 23.3828C70.0678 23.3971 70.0637 23.4217 70.0637 23.4504C70.0976 23.8825 70.0611 24.3173 69.9558 24.7376C69.2776 28.0336 67.406 31.1103 65.7076 33.9964C63.1171 38.3972 60.2252 42.6197 57.2579 46.7725C51.6187 54.6784 45.6292 62.3568 39.4483 69.8671C40.3444 68.5471 41.2507 67.2332 42.1773 65.9377C46.3868 60.057 50.7043 54.2541 54.9627 48.4082C58.5919 43.4273 62.2638 38.4464 65.5528 33.2195C66.5405 31.6433 67.5445 30.0281 68.2268 28.2858C68.5689 27.4126 68.9721 25.9634 67.9478 25.371C66.5466 24.5511 64.6262 27.0621 63.838 27.8943C58.2905 33.7525 53.3641 40.2666 48.4214 46.6352C41.6967 55.2906 35.1363 64.0697 28.7402 72.9725C23.993 79.5891 19.0849 86.2405 15.0749 93.347C14.9222 93.6176 14.7084 93.962 14.4843 94.3391L14.2339 94.458L14.2766 94.374C14.7735 93.4372 15.3071 92.5292 15.8448 91.6048C19.8995 84.7217 24.3086 78.0415 28.7565 71.4106C34.636 62.6479 40.6927 53.9979 47.0609 45.5877V45.5898ZM67.5099 27.2322C67.6586 27.1113 67.571 27.2219 67.5099 27.2322V27.2322ZM54.0239 14.3392C54.0056 14.3679 53.9872 14.3515 53.973 14.3208C54.1909 14.2839 53.9547 14.4458 54.0239 14.3392ZM27.4979 53.5142C32.8031 43.6487 38.2121 33.7586 44.499 24.4835C46.672 21.2777 49.0893 17.543 52.1299 15.2022C52.5307 14.9008 52.9613 14.6418 53.415 14.4294C53.5256 14.3887 53.6393 14.3572 53.7551 14.3351C53.7367 14.3351 53.6145 14.3351 53.8406 14.3351H53.9261C53.9913 14.3351 53.9506 14.3351 53.9261 14.3351C53.9017 14.3351 53.9261 14.3843 53.9261 14.4356C53.9316 14.6017 53.9268 14.7681 53.9119 14.9337C53.8183 15.6783 53.656 16.4125 53.4272 17.1269C53.3376 17.4282 53.2459 17.7295 53.1502 18.0288C53.1726 17.6926 53.1869 17.3544 53.1828 17.0142C53.1789 16.815 53.1174 16.6214 53.0059 16.4568C52.8944 16.2923 52.7377 16.1641 52.5549 16.0877C52.3722 16.0114 52.1713 15.9903 51.9768 16.0271C51.7823 16.0638 51.6027 16.1568 51.4599 16.2947C48.0385 19.6153 45.4317 23.6431 43.11 27.7897C40.4829 32.4837 38.0187 37.2678 35.4791 42.013C30.2235 51.8614 24.9922 61.7234 19.7855 71.5991C17.8209 75.3352 15.8644 79.0773 13.9162 82.8256C15.2575 78.8882 16.8005 75.0233 18.5391 71.2466C21.2783 65.208 24.3636 59.3457 27.4979 53.5142ZM10.4622 87.495C10.2422 88.3532 10.042 89.2168 9.86139 90.0859C9.14656 90.834 8.18531 91.7605 7.41753 92.0905C9.32917 87.8544 11.2001 83.6005 13.0303 79.3288C12.0392 82.006 11.1821 84.7315 10.4622 87.495ZM31.1107 11.4737C31.0965 11.4532 31.1107 11.3527 31.1107 11.4737V11.4737ZM33.2756 7.87225C33.3754 7.87225 33.3326 7.87225 33.2756 7.87225V7.87225ZM32.7094 7.9522C32.8655 7.89365 33.0318 7.86784 33.1982 7.87636C33.2277 7.91067 33.2505 7.95032 33.2654 7.99319C33.3904 8.74922 33.4538 9.51428 33.4548 10.2807C33.3417 12.2314 33.0623 14.1687 32.6198 16.0713C31.3184 22.1672 29.5385 28.1915 27.7076 34.144C23.549 47.6621 18.5534 60.9097 13.1117 73.9523C12.4437 75.5511 11.769 77.1471 11.0874 78.7405L17.5147 57.5542C20.6042 48.6337 23.8382 39.7664 27.0274 30.8828C28.453 26.894 29.8908 22.9031 31.2146 18.8774C31.9518 16.6391 32.8968 14.2531 33.1065 11.8816C33.1819 11.0166 32.9355 10.2233 32.0027 9.96301C31.6922 9.87456 31.3635 9.87325 31.0523 9.95924C30.7411 10.0452 30.4592 10.2152 30.237 10.4508L30.349 10.2623C30.9335 9.33578 31.7665 8.26376 32.7135 7.9522H32.7094ZM29.2249 18.4551C29.6322 16.7743 30.0395 15.0157 30.7482 13.4373L30.6505 13.8206C30.2981 15.1304 29.8888 16.4238 29.4713 17.7152C29.3898 17.9591 29.3063 18.2133 29.2249 18.4551ZM31.6687 11.9369C31.6769 11.9207 31.683 11.9034 31.6871 11.8857C31.6952 11.8283 31.7054 11.9 31.6728 11.9369H31.6687ZM27.948 15.4482C27.4653 17.088 27.0865 18.7729 26.6466 20.4332C25.9033 23.2454 25.0174 26.031 24.1478 28.8146C25.2353 24.3174 26.3574 19.7977 27.948 15.4482ZM12.2482 1.86442H12.2666H12.2482ZM11.2849 4.43686C11.399 4.02691 11.5191 3.61696 11.6556 3.20701C11.7085 3.04713 11.7656 2.88725 11.8226 2.72942C11.8694 2.60234 11.9163 2.4937 11.9326 2.45475C11.9488 2.41581 11.9875 2.34202 12.0161 2.28462C12.0731 2.39121 12.1301 2.4896 12.1851 2.60233L12.2258 2.67408C12.2323 2.70145 12.2412 2.7282 12.2523 2.75402C12.3032 2.8934 12.3521 3.03483 12.3949 3.17627C12.5942 3.85324 12.7413 4.54469 12.8347 5.24447C12.8653 5.44944 12.9223 5.92294 12.963 6.35954C13.0119 6.86173 13.0486 7.36391 13.0771 7.8661C13.1423 8.97707 13.1708 10.088 13.181 11.2011C13.2013 13.9395 13.1056 16.678 12.959 19.4124C12.6026 26.1766 11.9407 32.9285 11.1851 39.6599C10.3705 46.9023 9.4147 54.1243 8.31769 61.3258C7.38902 67.4873 6.38501 73.6407 5.20381 79.7592C4.64376 82.6514 4.12851 85.6215 3.30778 88.4727C3.30778 87.4991 3.36073 86.5234 3.42386 85.5539C3.96762 77.1171 5.25675 68.7131 6.3626 60.3419C7.93074 48.5558 9.51721 36.7697 10.843 24.9549C11.4988 19.0926 12.0894 13.2242 12.568 7.34547C12.6596 6.20991 11.1424 6.06847 10.676 6.90682C10.8593 6.08077 11.0589 5.25472 11.2849 4.43686ZM3.10616 62.1436C3.86647 54.5103 4.72386 46.888 5.67832 39.2766C6.63143 31.5941 7.65785 23.9157 8.9144 16.2762C9.39299 13.3697 9.90008 10.4631 10.5253 7.58324C9.50703 19.9515 8.02442 32.2766 6.42981 44.5793C5.05921 55.1478 3.54402 65.6917 2.30784 76.2849C2.21959 77.0378 2.13337 77.7894 2.0492 78.5396C1.94533 73.0647 2.57259 67.5878 3.10616 62.1436ZM86.8713 62.859C86.2991 63.3817 85.7268 63.9023 85.1484 64.4188C73.5211 74.838 61.2057 84.4521 48.2869 93.1954C43.4685 96.4545 38.5787 99.8386 33.4018 102.577C44.2892 93.6279 54.9118 84.3384 65.6037 75.1555C68.7685 72.4402 71.9435 69.7366 75.1286 67.0446C75.4423 66.8109 75.7538 66.5772 76.0695 66.3477C80.7169 62.9492 85.57 59.8233 90.7143 57.257C89.491 59.1633 88.21 61.0306 86.8713 62.859ZM71.4526 79.8904C64.0457 86.5459 55.7901 92.1777 46.9041 96.6369C57.7039 89.5304 68.0475 81.6327 77.9248 73.3517C78.2608 73.0709 78.5948 72.7859 78.9288 72.501C76.5569 75.0783 74.0649 77.5414 71.4526 79.8904ZM99.9643 48.7731C99.8841 49.2032 99.7238 49.6143 99.4918 49.9845C98.937 50.9413 98.2808 51.8347 97.5347 52.6492C96.2201 54.1185 94.8314 55.519 93.374 56.845C93.6734 56.3633 93.9728 55.8816 94.264 55.3958C94.8342 54.4468 93.7427 53.6248 92.8832 54.0061C91.254 54.7235 89.6573 55.5024 88.0912 56.3285C90.7998 54.1311 93.5634 51.9871 96.5001 50.1382C97.2991 49.6079 98.1404 49.1451 99.0153 48.7546C99.2952 48.6444 99.5815 48.5513 99.8727 48.4759H99.9297C99.9467 48.574 99.9556 48.6734 99.9562 48.7731H99.9643ZM100.056 48.4595C100.097 48.4595 100.123 48.4595 100.123 48.4595C100.123 48.5128 100.084 48.4964 100.048 48.4595H100.056Z" fill="#FFF500"/>
</svg>
