<svg id="Слой_1" data-name="Слой 1" xmlns="http://www.w3.org/2000/svg" width="1080" height="1080" viewBox="0 0 1080 1080"><defs><style>.cls-1{fill:#fff;}.cls-2{fill:#2e3033;}</style></defs><title>promin_ukr_light</title><path class="cls-1" d="M634.07,305.57v0C634,305.56,634,305.57,634.07,305.57Z"/><path class="cls-1" d="M868.78,467.19c-4.18-8.29-14.13-4.37-20.47-1.3-10.74,5.2-20.56,12.46-30.11,19.54-26,19.25-50.8,40.1-75.64,60.76-3.26,2.71-6.49,5.44-9.74,8.16-23.39,17.23-45.9,35.78-68.22,54.17C610.39,653.17,556.89,698.81,504.82,746c-1,.89-2,1.81-2.92,2.77L500.29,750a4.43,4.43,0,0,0-1.15,1.34c-5,1.8-10.15,3.41-15.32,4.78-3.64,1-20,6.4-18.71-1.87.59-3.94,4.16-7.92,6.35-11.1q4.13-6,8.43-11.81c5.58-7.57,11.4-15,17.38-22.19q4.14-1.57,8.22-3.23c35.26-14.19,67.8-32.8,96.64-57.61,39-33.55,73.09-72.5,106.86-111.18q26.47-30.3,52.46-61c8.19-9.64,16.72-19.11,24.59-29a55.32,55.32,0,0,0,9.85-20.88c1.41-5.82,2.26-14-3.66-17.71-2.73-1.72-6-1.63-9-.95-6.41,1.43-12.48,5.25-18,8.71-20.77,13.11-39.76,29.31-58.4,45.22-26.14,22.31-51.52,45.52-76.56,69q-40.18,37.79-79.13,76.86c-2.27,2.28-4.52,4.57-6.78,6.86,21.14-24.63,41.54-49.94,61.61-75.37,34.57-43.81,69.31-88.59,97.23-137,8.23-14.27,17.87-30.41,19.84-47.1,1.18-9.89-3.87-19.69-15-18.63-11.6,1.09-22.19,10.62-30.5,17.93-14.26,12.54-27,26.8-39.38,41.18-33.88,39.44-64.77,81.49-94.82,123.88q-8.46,11.93-16.8,23.93Q540,518.2,553.12,493.16c29.74-50.68,61.19-100.62,82.59-155.55,3.33-8.56,17.95-41.31-1.4-42-6.42-.22-12.19,3.94-16.91,7.82-7.31,6-13.5,13.43-19.36,20.82-17,21.41-31.62,44.63-45.78,67.94-15.48,25.49-30.2,51.45-44.58,77.58-14.28,26-28.46,52-41.65,78.54q-6.54,13.15-12.78,26.54,14-34.14,26.89-68.7c22.71-60.79,43.59-122.86,58.13-186.17a229.71,229.71,0,0,0,4.6-26.69c.83-7.61,2.13-17.86-2.26-24.7-3.76-5.88-11.33-5.13-16.82-2.35-5.81,3-10.13,8.38-13.61,13.73-10.57,16.25-16.32,35.94-21.65,54.39-6.36,22-11.49,44.39-16.85,66.68-10.46,43.5-23.47,86.45-36.3,129.3C425.44,563.58,415.54,597,404,629.74c2.36-12.09,4.49-24.22,6.59-36.33q8.75-50.37,15.55-101c4.91-36,9.26-72,12.62-108.16,2.8-30.1,5.16-60.36,5.14-90.61a250.3,250.3,0,0,0-1.58-31.45c-.86-6.8-1.85-14.38-5.5-20.35-2.91-4.76-9.46-8.82-14.36-4.12-4.71,4.52-6.3,12.92-7.91,18.94-7.65,28.71-11.76,58.53-16.12,87.87-5.93,39.89-11,79.91-15.73,120-4,34.43-7.82,68.9-10.88,103.43-1,11.18-2,22.39-2.42,33.61a320.46,320.46,0,0,0,1.4,41.68c.92,9.61,1.95,19.53,4.44,28.93.11,4.56.75,9,2.73,12.5,2.44,4.3,6.26,4.54,9.24,2.48l.45-.1c3.46-1,5.57-4.73,7.18-7.65.25-.45.48-.92.72-1.38-.93,3-1.85,6.07-2.78,9.1a4.84,4.84,0,0,0,1.28,4.82c6.79,5.43,14.49,3.16,20.91-1.46a6.54,6.54,0,0,0,1.21,4c.68,4.65,2.72,8.94,7.07,11.55a16.37,16.37,0,0,0,10.42,2.09,13,13,0,0,0,1.41.08,9.18,9.18,0,0,0,.83,6.28,10.06,10.06,0,0,0,4.22,3.88,4.92,4.92,0,0,0,2.18.89c6,1.94,14.07.8,19.05,0a139.77,139.77,0,0,0,18.51-4.19c-.67.86-1.35,1.72-2,2.59-6.08,7.9-12,16-17.54,24.24-4.23,6.33-8.22,15.22-2.29,21.9,4.84,5.45,12.64,5.27,19.23,4.05A134.19,134.19,0,0,0,491,764.49a20.24,20.24,0,0,0,2.17,18.67c9.74,15,28.54,14.5,44.23,12.49,6.24-.8,6.32-10.73,0-9.92-11.91,1.53-31.1,4-37-10-2.47-5.87.73-11.61,4.55-16,.91-.34,1.81-.71,2.72-1.07,11.61-.24,21.92-8,31.51-13.81,11.46-7,24.7-10.79,37-16.05A544.44,544.44,0,0,0,650.4,690a560.41,560.41,0,0,0,126.2-107.8q14.13-16.31,26.94-33.69Q819,534.6,834.21,520.47c9-8.36,18-16.92,25.67-26.61C865.21,487.07,873.36,476.29,868.78,467.19ZM426,694.43a31.46,31.46,0,0,0,3.92-1.79c-.41.81-.82,1.61-1.21,2.42-.3.63-.63,1.3-.94,2A6.14,6.14,0,0,1,426,694.43ZM608.75,360.69c-6.31,13.31-12.87,26.51-19.42,39.71Q569.1,441.25,548,481.64c-.38.74-.77,1.48-1.16,2.21-31.2,54-59.87,110.69-99.61,158.93q18-34.35,36.18-68.62,36.24-68.32,72.93-136.42c11.3-21,22.31-42.26,34.09-63,8.4-14.79,17.55-29.17,28.64-42C617,342.4,613,351.67,608.75,360.69ZM429,677.74c3.13-3.18,6.18-6.44,9.18-9.65,6.8-7.28,13.3-14.85,19.54-22.62A202.6,202.6,0,0,1,443.12,667c-4,5.1-9.74,12.55-16.3,16.52A46.86,46.86,0,0,1,429,677.74Zm267.17-312a1.4,1.4,0,0,1,0,.29A1.38,1.38,0,0,1,696.2,365.71Zm-191.55,277c-2.34,3-4.73,6-7.18,8.94q-6.53,6.75-13.33,13.22a194.29,194.29,0,0,1-26,21.12l-.47.3c8.16-13.35,16.92-26.35,25.76-39.25,27.45-40.06,56.24-79.21,85.45-118,28.59-37.95,57.62-75.62,87.85-112.28,10.2-12.36,20.49-24.71,31.46-36.4,1.31-1.4,2.65-2.79,4-4.16a257.25,257.25,0,0,1-14.44,23.94C661.4,425,643.66,449,626,473c-20,27.22-40.24,54.29-60,81.73C545.22,583.76,526.71,614.58,504.65,642.67Zm85.56,2.81c-23.66,19.83-50.72,35.38-79.12,47.49l1.65-1.89,5.45-3.09c25.37-14.49,50-30.79,72.61-49.3,12.89-10.56,24.7-22.43,36.63-34q22.91-22.3,45.27-45.16Q689.92,542,707,524.31q-7.68,8.84-15.41,17.62C659.71,578.17,627.29,614.39,590.21,645.48ZM775.06,431.77c.09,0,.05.2,0,.37l0,0,0-.08,0,.08A.67.67,0,0,1,775.06,431.77Zm-15.75,23.14c-19.79,22.76-41.58,43.95-62.54,65.63-28,29-56.31,57.86-85.4,85.86A457,457,0,0,1,548,657.85q-5.85,3.9-11.79,7.71c30-31.49,62-61.26,93-91.75,37-36.5,73.92-73.24,112.12-108.53,9.65-8.91,19.7-18.75,30.09-26.41A116.16,116.16,0,0,1,759.31,454.91ZM787,417c.85-.07.11.22,0,0ZM559.54,613.05C607.71,564.8,657,517.47,708.7,472.94c18.53-16,37.33-32,57.73-45.61,3.2-2.13,6.46-4.2,9.83-6.07q2.16-1.2,4.38-2.27a13.73,13.73,0,0,1,3-1.22,23.89,23.89,0,0,1,2.64-.71l.48-.06h.16c0,.59.12,3,0,3.73a36.25,36.25,0,0,1-2.32,8.5,8.43,8.43,0,0,0-.81-1.76c-6.11-10-21.63,6.19-26.38,10.21-38,32.09-73,68-108.45,102.8Q619.17,569.72,589.44,599c-24.66,24.21-49.67,48.07-73.15,73.44q-5,5.41-9.93,10.93A363.44,363.44,0,0,1,473,699.71a183.36,183.36,0,0,1-18.23,6.73,169.73,169.73,0,0,1,14-11.18c10.41-7.63,21.34-14.57,31.64-22.36,9.56-7.24,17.3-17.14,25.61-25.75Q542.65,630,559.54,613.05Zm40.81-155C625.55,425,651.49,391,682.43,363a112.86,112.86,0,0,1,14.84-11.78,57.18,57.18,0,0,1,6.47-3.66c1.28-.62.34-.18.64-.29s.87-.35,1.31-.48c1-.3,1.91-.55,2.89-.76h0l1.17-.05.61,0a1.82,1.82,0,0,0,.54.17,1.19,1.19,0,0,0,.57.06c.08.08.19.19.38.35l.15.12a6.55,6.55,0,0,1,.5.48,4,4,0,0,1,.38.7c0,.05,0,.11.05.18.13.45.27.9.36,1.37a2.24,2.24,0,0,0,.06.33c0,.09,0,.19,0,.33a19.47,19.47,0,0,1-.52,6.28c-3.33,16.08-12.52,31.09-20.86,45.17-12.73,21.47-26.93,42.07-41.49,62.33-27.76,38.62-57.18,76.08-87.53,112.72,4.4-6.44,8.85-12.85,13.4-19.17,20.68-28.69,41.87-57,62.78-85.52,17.82-24.3,35.85-48.6,52-74.1,4.86-7.69,9.78-15.57,13.13-24.07,1.69-4.26,3.66-11.33-1.37-14.22-6.88-4-16.3,8.25-20.17,12.31-27.25,28.58-51.43,60.36-75.71,91.43q-49.49,63.33-96.59,128.49c-23.3,32.28-47.41,64.73-67.1,99.4-.75,1.32-1.79,3-2.89,4.84-.41.19-.82.39-1.24.57.08-.13.14-.27.21-.4,2.45-4.57,5.07-9,7.71-13.51C467,649,488.64,616.37,510.48,584,539.34,541.27,569.08,499.07,600.35,458ZM700.77,368.5c.72-.59.29-.05,0,0Zm-66.23-62.91c-.09.14-.17.06-.25-.09C635.37,305.32,634.2,306.11,634.54,305.59ZM504.3,496.71c26-48.13,52.6-96.38,83.48-141.63,10.67-15.64,22.53-33.86,37.47-45.28a35.35,35.35,0,0,1,6.31-3.77,10.46,10.46,0,0,1,1.66-.46c-.09,0-.69,0,.43,0l.41,0h.05c.32,0,.12,0,0,0s0,.24,0,.49c0,.81,0,1.62-.07,2.43a59.11,59.11,0,0,1-2.39,10.7c-.43,1.47-.89,2.94-1.35,4.4.1-1.64.17-3.29.16-4.95a5,5,0,0,0-8.47-3.51c-16.8,16.2-29.6,35.85-41,56.08-12.9,22.9-25,46.24-37.47,69.39q-38.71,72.07-77.06,144.34Q452,612.28,437.66,639.7a588.07,588.07,0,0,1,22.7-56.49C473.75,553.76,488.9,525.16,504.3,496.71ZM420.65,662.48q-1.63,6.28-3,12.64c-3.5,3.65-8.22,8.17-12,9.78q14.09-31,27.56-62.26C428.4,635.73,424.13,649,420.65,662.48ZM522,291.61c-.07-.1,0-.59,0,0ZM532.66,274c.5,0,.29,0,0,0Zm-2.77.39a5.93,5.93,0,0,1,2.4-.37,1.69,1.69,0,0,1,.32.57c.45,3.76,1.09,7.24.93,11.16-.37,9.5-2.1,19-4.1,28.25-6.39,29.74-15.13,59.13-24.11,88.17-20.4,66-45,130.58-71.68,194.21q-4.9,11.7-9.93,23.36l31.56-103.36c15.17-43.52,31.05-86.78,46.7-130.12,7-19.46,14.06-38.93,20.56-58.57,3.62-10.92,8.27-22.56,9.29-34.13.38-4.22-.83-8.09-5.42-9.36a8.7,8.7,0,0,0-8.67,2.38c.19-.3.36-.61.56-.92C521.16,281.18,525.26,276,529.89,274.43Zm-17.12,51.24c2-8.2,4-16.78,7.49-24.48-.17.63-.32,1.25-.49,1.87-1.72,6.39-3.73,12.7-5.79,19C513.59,323.25,513.17,324.46,512.77,325.67Zm12-31.8a.81.81,0,0,0,.1-.25C524.91,293.34,525,293.69,524.79,293.87ZM506.5,311c-2.37,8-4.23,16.22-6.38,24.32-3.66,13.72-8,27.31-12.28,40.89C493.18,354.27,498.7,332.22,506.5,311Zm-77.09-66.27h0l.09,0Zm-2.34.67h0Zm-2.39,11.88c.56-2,1.16-4,1.83-6,.26-.78.54-1.56.82-2.33.23-.62.45-1.15.53-1.34s.28-.55.41-.83l0,0c.27.52.56,1,.83,1.55.08.16.15.27.19.35s.06.18.13.39c.25.68.49,1.37.71,2.06a68.12,68.12,0,0,1,2.16,10.09c.15,1,.42,3.31.63,5.44.23,2.45.41,4.9.56,7.35.32,5.42.46,10.84.5,16.27.11,13.36-.37,26.72-1.08,40.06-1.76,33-5,65.94-8.72,98.78q-6,53-14.08,105.7c-4.56,30.06-9.49,60.08-15.29,89.93-2.74,14.11-5.27,28.6-9.31,42.51,0-4.75.26-9.51.57-14.24,2.67-41.16,9-82.16,14.43-123,7.7-57.5,15.5-115,22-172.64,3.21-28.6,6.11-57.23,8.46-85.91.45-5.54-7-6.23-9.29-2.14C422.6,265.3,423.57,261.27,424.68,257.28ZM384.52,538.81q5.6-55.86,12.63-111.56c4.69-37.48,9.72-74.94,15.89-112.21,2.35-14.18,4.85-28.36,7.91-42.41C416,333,408.67,393.1,400.84,453.12c-6.73,51.56-14.17,103-20.23,154.68q-.66,5.51-1.28,11C378.82,592.09,381.86,565.37,384.52,538.81Zm411.32,3.49q-4.22,3.83-8.46,7.61a1693.27,1693.27,0,0,1-181,140.39c-23.66,15.9-47.67,32.41-73.1,45.77,53.49-43.66,105.62-89,158.15-133.78q23.31-19.87,46.78-39.57c1.54-1.14,3.07-2.28,4.61-3.4,22.82-16.58,46.65-31.83,71.92-44.35Q805.7,528.92,795.84,542.3Zm-75.72,83.09a548.26,548.26,0,0,1-120.53,81.69c53-34.66,103.82-73.19,152.34-113.6,1.65-1.37,3.29-2.77,4.93-4.15Q739.36,608.2,720.12,625.39Zm140-151.81a16.73,16.73,0,0,1-2.31,5.91,75.31,75.31,0,0,1-9.61,13A285.9,285.9,0,0,1,827.73,513c1.46-2.35,2.94-4.7,4.37-7.07,2.79-4.63-2.56-8.64-6.79-6.78-8,3.5-15.83,7.3-23.53,11.33,13.3-10.72,26.87-21.18,41.29-30.2a85.18,85.18,0,0,1,12.4-6.78,36.61,36.61,0,0,1,4.2-1.36l.28,0A8.71,8.71,0,0,1,860.08,473.58Zm.46-1.53c.2,0,.33,0,.33,0C860.86,472.31,860.72,472.23,860.54,472.05Z"/><path class="cls-1" d="M634.1,305.56v0h0v0Z"/><path class="cls-1" d="M711.91,346.53l0,0C711.45,346.17,712.78,347.26,711.91,346.53Z"/><path class="cls-1" d="M634.07,305.57Z"/><path class="cls-2" d="M324.14,545.9H310.47V463.33H255.78V545.9H242.11V450.2h82Z"/><path class="cls-2" d="M423.94,450.2v4.1q0,16.54-7.79,29.12a52,52,0,0,1-21.53,19.42,68.23,68.23,0,0,1-30.83,6.83V545.9H350.12V450.2ZM385.73,493a40.18,40.18,0,0,0,15.93-12,39.61,39.61,0,0,0,7.93-18.18h-45.8v34.45A54.55,54.55,0,0,0,385.73,493Z"/><path class="cls-2" d="M455.38,540.78a47.61,47.61,0,0,1-18-17.78,50.73,50.73,0,0,1,0-49.9,47.58,47.58,0,0,1,18-17.77,52.54,52.54,0,0,1,50.59,0,47.68,47.68,0,0,1,18,17.77,50.73,50.73,0,0,1,0,49.9,47.71,47.71,0,0,1-18,17.78,52.54,52.54,0,0,1-50.59,0Zm43.27-11.42a35,35,0,0,0,12.86-13.06,37.71,37.71,0,0,0,0-36.5,35.45,35.45,0,0,0-61.66,0,37.64,37.64,0,0,0,0,36.5,35.72,35.72,0,0,0,48.8,13.06Z"/><path class="cls-2" d="M659.77,450.2v95.7H646.1V468.8l-41,44.7-41-44.7v77.1H550.4V450.2h14.08l40.88,44.16L646.1,450.2Z"/><path class="cls-2" d="M699.42,450.2v95.7H685.75V450.2Z"/><path class="cls-2" d="M807.42,450.2v95.7H793.75V504.61H739.06V545.9H725.39V450.2h13.67v41.29h54.69V450.2Z"/><path class="cls-2" d="M878.58,493.2a49.89,49.89,0,0,1,21.12,19.34q7.51,12.59,7.52,29.26v4.1H833.4V450.2h13.67v36.23Q865,486.43,878.58,493.2Zm-31.51,40.12h45.39q-2.48-16-14.36-25.22t-31-9.23Z"/><path class="cls-2" d="M365.57,661.87H351.89V579.29H297.21v82.58H283.54v-95.7h82Z"/><path class="cls-2" d="M410,656.74A47.61,47.61,0,0,1,392,639a50.73,50.73,0,0,1,0-49.9A47.61,47.61,0,0,1,410,571.3a52.45,52.45,0,0,1,50.58,0,47.61,47.61,0,0,1,18.05,17.77,50.73,50.73,0,0,1,0,49.9,47.61,47.61,0,0,1-18.05,17.77,52.45,52.45,0,0,1-50.58,0Zm43.27-11.41a35,35,0,0,0,12.85-13.06,37.71,37.71,0,0,0,0-36.5,35.44,35.44,0,0,0-61.66,0,37.64,37.64,0,0,0,0,36.5,35.76,35.76,0,0,0,48.81,13.06Z"/><path class="cls-2" d="M566,623.73a49.48,49.48,0,0,1,10.93,15.85,45.63,45.63,0,0,1,3.83,18.19v4.1H505v-95.7h73.14v4.1a42.91,42.91,0,0,1-8.06,25.43,53.84,53.84,0,0,1-20.78,17.5A46.79,46.79,0,0,1,566,623.73Zm-47.58-45.39v29.8h8.75A38,38,0,0,0,543,604.52a37.19,37.19,0,0,0,13.46-10.39,29.22,29.22,0,0,0,6.5-15.79Zm0,71.36h47.3a31.87,31.87,0,0,0-6.56-15.17A37.76,37.76,0,0,0,546,623.79a37,37,0,0,0-16.61-3.89H518.41Z"/><path class="cls-2" d="M664.56,661.87l-5.06-13.13-67.27,14.63q-.54-5.75-.54-8.61a66.1,66.1,0,0,1,5.94-28,59.88,59.88,0,0,1,16.55-21.6,57.08,57.08,0,0,1,24-11.69l-10.53-27.34h15l36.91,95.7ZM655,637l-12-31.31a45.84,45.84,0,0,0-18.66,7.72,40.84,40.84,0,0,0-12.71,14.7,45.61,45.61,0,0,0-5,19.41Z"/><path class="cls-2" d="M759.84,579.29H709.26v82.58H695.59v-95.7h64.25Z"/><path class="cls-2" d="M859,566.17v95.7H845.29V584.63l-56,61.11v16.13H775.57v-95.7h13.67v61.11l56-61.11Z"/></svg>