<svg id="Слой_1" data-name="Слой 1" xmlns="http://www.w3.org/2000/svg" width="1080" height="1080" viewBox="0 0 1080 1080"><defs><style>.cls-1{fill:#9cbfe1;}.cls-2{fill:#2e3033;}</style></defs><title>promin_ukr</title><path class="cls-1" d="M630.19,297.07v0h0v0Z"/><path class="cls-1" d="M708,338,708,338C707.55,337.68,708.87,338.77,708,338Z"/><path class="cls-1" d="M864.87,458.7c-4.17-8.29-14.12-4.37-20.47-1.3-10.73,5.2-20.56,12.46-30.1,19.54-26,19.25-50.81,40.1-75.65,60.76-3.25,2.71-6.48,5.44-9.73,8.16C705.53,563.09,683,581.64,660.69,600,606.48,644.68,553,690.32,500.91,737.46c-1,.89-2,1.81-2.92,2.77l-1.6,1.29a4.62,4.62,0,0,0-1.16,1.34c-5,1.8-10.15,3.41-15.32,4.78-3.63,1-20,6.4-18.71-1.87.6-3.94,4.16-7.92,6.36-11.1q4.13-6,8.43-11.81,8.37-11.36,17.38-22.19,4.14-1.57,8.22-3.23c35.26-14.19,67.8-32.8,96.64-57.61,39-33.55,73.08-72.5,106.86-111.18q26.46-30.3,52.45-61c8.2-9.64,16.72-19.11,24.6-29A55.3,55.3,0,0,0,792,417.73c1.42-5.82,2.27-14-3.65-17.71-2.74-1.72-6-1.63-9-.95-6.4,1.43-12.47,5.25-17.95,8.71C740.59,420.89,721.6,437.09,703,453c-26.14,22.31-51.51,45.52-76.55,69q-40.2,37.79-79.14,76.86c-2.27,2.28-4.52,4.57-6.78,6.86,21.15-24.63,41.55-49.94,61.62-75.37,34.57-43.81,69.3-88.59,97.23-137,8.22-14.27,17.86-30.41,19.84-47.1,1.17-9.89-3.87-19.69-15-18.63-11.59,1.09-22.19,10.62-30.5,17.93-14.25,12.54-27,26.8-39.38,41.18-33.87,39.44-64.76,81.49-94.82,123.88q-8.45,11.93-16.79,23.94,13.46-24.87,26.58-49.9C579,434,610.41,384.05,631.81,329.12c3.33-8.56,17.94-41.31-1.4-42-6.42-.22-12.2,3.94-16.91,7.82-7.31,6-13.5,13.43-19.36,20.82-17,21.41-31.62,44.63-45.78,67.94-15.49,25.49-30.2,51.45-44.58,77.58-14.28,26-28.46,52-41.65,78.54-4.36,8.77-8.65,17.62-12.79,26.54q13.95-34.15,26.9-68.7C499,436.9,519.82,374.83,534.37,311.52a229.71,229.71,0,0,0,4.6-26.69c.83-7.61,2.12-17.86-2.26-24.7-3.77-5.88-11.33-5.13-16.83-2.35-5.8,3-10.13,8.38-13.61,13.73-10.56,16.25-16.31,35.94-21.64,54.39-6.37,22-11.49,44.39-16.85,66.68-10.47,43.5-23.47,86.45-36.3,129.3-10,33.22-19.85,66.61-31.36,99.37,2.36-12.09,4.49-24.22,6.6-36.33q8.75-50.37,15.55-101c4.9-36,9.26-72,12.62-108.16,2.79-30.1,5.15-60.36,5.14-90.61a252.2,252.2,0,0,0-1.58-31.45c-.86-6.8-1.85-14.38-5.5-20.35-2.91-4.76-9.47-8.82-14.36-4.12-4.71,4.52-6.31,12.92-7.91,18.94C403,276.83,398.92,306.65,394.56,336c-5.94,39.89-11,79.91-15.74,120-4,34.43-7.82,68.9-10.88,103.43-1,11.18-2,22.39-2.41,33.61a318.7,318.7,0,0,0,1.4,41.68c.92,9.61,1.94,19.53,4.44,28.93.1,4.56.75,9,2.72,12.5,2.44,4.3,6.27,4.54,9.24,2.48l.46-.1c3.45-1,5.56-4.73,7.18-7.65.25-.45.47-.92.71-1.38-.92,3-1.85,6.07-2.77,9.1a4.84,4.84,0,0,0,1.27,4.82c6.79,5.43,14.49,3.16,20.91-1.46a6.62,6.62,0,0,0,1.22,4c.67,4.65,2.72,8.94,7.07,11.55a16.34,16.34,0,0,0,10.41,2.09,13.33,13.33,0,0,0,1.41.08A9.24,9.24,0,0,0,432,706a10,10,0,0,0,4.21,3.88,4.92,4.92,0,0,0,2.18.89c6,1.94,14.08.8,19.05,0A139.56,139.56,0,0,0,476,706.58c-.68.86-1.36,1.72-2,2.59-6.09,7.9-12,16-17.54,24.24-4.23,6.33-8.23,15.22-2.29,21.9,4.83,5.45,12.64,5.27,19.22,4.05A135,135,0,0,0,487.12,756a20.21,20.21,0,0,0,2.17,18.67c9.74,15,28.53,14.5,44.23,12.49,6.24-.8,6.32-10.73,0-9.92-11.92,1.53-31.1,4-37-10-2.48-5.87.72-11.61,4.55-16,.91-.34,1.81-.71,2.72-1.07,11.61-.24,21.91-8,31.51-13.81,11.45-7,24.7-10.79,37-16a544.56,544.56,0,0,0,74.21-38.79,560.36,560.36,0,0,0,126.19-107.8q14.14-16.31,26.95-33.69,15.42-13.92,30.67-28.06c9-8.36,18-16.92,25.66-26.61C861.3,478.58,869.45,467.8,864.87,458.7ZM422.13,685.94a30.82,30.82,0,0,0,3.92-1.79c-.41.81-.82,1.61-1.2,2.42-.3.63-.63,1.3-1,2A6.14,6.14,0,0,1,422.13,685.94ZM604.85,352.2c-6.32,13.31-12.88,26.51-19.42,39.71q-20.25,40.84-41.35,81.24l-1.16,2.21c-31.2,54-59.88,110.69-99.61,158.93q18-34.35,36.18-68.62,36.24-68.32,72.92-136.42c11.3-21,22.31-42.26,34.1-63,8.4-14.79,17.54-29.17,28.63-42C613.08,333.91,609.12,343.18,604.85,352.2ZM425.12,669.25c3.13-3.18,6.18-6.44,9.19-9.65,6.8-7.28,13.3-14.85,19.54-22.62a205.65,205.65,0,0,1-14.63,21.48c-4.05,5.1-9.75,12.55-16.3,16.52A48.68,48.68,0,0,1,425.12,669.25Zm267.18-312v.29A.7.7,0,0,1,692.3,357.22Zm-191.56,277c-2.33,3-4.72,6-7.18,8.94q-6.51,6.75-13.33,13.22a193,193,0,0,1-26,21.12l-.46.3c8.16-13.35,16.92-26.35,25.76-39.25,27.44-40.06,56.24-79.21,85.45-118,28.58-37.95,57.61-75.62,87.85-112.28,10.19-12.36,20.48-24.71,31.45-36.4,1.32-1.4,2.65-2.79,4-4.16a261.67,261.67,0,0,1-14.44,23.94c-16.35,24.91-34.09,48.91-51.74,72.91-20,27.23-40.24,54.29-60,81.73C541.31,575.27,522.8,606.09,500.74,634.18ZM586.3,637c-23.65,19.83-50.72,35.38-79.11,47.49.55-.63,1.09-1.27,1.65-1.89l5.45-3.09c25.37-14.49,50-30.79,72.6-49.3,12.9-10.56,24.71-22.43,36.64-34q22.9-22.3,45.26-45.16,17.24-17.54,34.35-35.18-7.7,8.83-15.42,17.62C655.8,569.68,623.39,605.9,586.3,637ZM771.16,423.27c.09,0,.05.21,0,.38l0,0a.59.59,0,0,1,0-.08.3.3,0,0,0,0,.08A.54.54,0,0,1,771.16,423.27Zm-15.75,23.15c-19.79,22.76-41.59,43.95-62.54,65.63-28.06,29-56.31,57.86-85.4,85.86a457.64,457.64,0,0,1-63.36,51.45q-5.83,3.9-11.78,7.71c30-31.49,62-61.26,93-91.75,37-36.5,73.91-73.24,112.12-108.53,9.64-8.91,19.69-18.75,30.09-26.41A117.77,117.77,0,0,1,755.41,446.42Zm27.67-37.93c.86-.07.12.22,0,0ZM555.64,604.56C603.8,556.31,653.14,509,704.8,464.45c18.53-16,37.33-32,57.72-45.61,3.21-2.13,6.47-4.2,9.84-6.07q2.16-1.2,4.38-2.27a13.52,13.52,0,0,1,3-1.22,24.33,24.33,0,0,1,2.63-.71l.49-.06H783c0,.6.12,3,0,3.73a36.22,36.22,0,0,1-2.31,8.5,8.48,8.48,0,0,0-.82-1.76c-6.11-10-21.62,6.19-26.37,10.21-38,32.09-73,68-108.45,102.8q-29.79,29.25-59.51,58.56c-24.66,24.21-49.68,48.07-73.16,73.44q-5,5.41-9.92,10.93a364.7,364.7,0,0,1-33.37,16.31A182.62,182.62,0,0,1,450.85,698a171.42,171.42,0,0,1,14-11.18c10.42-7.63,21.35-14.57,31.64-22.36,9.57-7.24,17.31-17.14,25.62-25.75Q538.73,621.47,555.64,604.56Zm40.81-155c25.19-33.06,51.14-67.09,82.08-95.08a112.86,112.86,0,0,1,14.84-11.78,57.18,57.18,0,0,1,6.47-3.66c1.28-.62.33-.18.63-.29s.87-.35,1.32-.48c1-.3,1.9-.55,2.88-.76h0l1.18-.05.61,0a1.69,1.69,0,0,0,.53.17,1.23,1.23,0,0,0,.58.06,4.76,4.76,0,0,0,.37.35l.16.12c.09.07.31.3.49.49a3.19,3.19,0,0,1,.39.69s0,.11,0,.18c.12.45.27.9.35,1.37,0,.16.05.26.07.33s0,.19,0,.33a19.44,19.44,0,0,1-.53,6.28c-3.33,16.08-12.52,31.09-20.86,45.17-12.72,21.47-26.92,42.07-41.49,62.33C618.83,493.9,589.42,531.36,559.07,568c4.4-6.44,8.85-12.85,13.4-19.17,20.67-28.69,41.87-57,62.78-85.52,17.82-24.3,35.85-48.6,52-74.1,4.85-7.69,9.78-15.57,13.13-24.07,1.68-4.26,3.66-11.33-1.37-14.22-6.88-4-16.31,8.25-20.18,12.31-27.24,28.58-51.43,60.36-75.7,91.43Q553.6,518,506.49,583.15c-23.31,32.28-47.41,64.73-67.1,99.4-.75,1.32-1.8,3-2.9,4.84l-1.23.58.21-.41c2.44-4.57,5.06-9,7.7-13.51,19.91-33.58,41.56-66.17,63.4-98.52C535.44,532.78,565.18,490.58,596.45,449.55ZM696.86,360c.73-.59.3-.05,0,0ZM630.64,297.1c-.09.14-.18.06-.25-.09C631.46,296.83,630.3,297.62,630.64,297.1ZM500.39,488.22c26.05-48.13,52.61-96.38,83.48-141.63,10.67-15.64,22.54-33.86,37.47-45.28a35.71,35.71,0,0,1,6.31-3.77,10.58,10.58,0,0,1,1.67-.46c-.09,0-.69,0,.42,0l.42,0h0c.32,0,.12,0,0,0s0,.24,0,.49a19.73,19.73,0,0,1-.07,2.43,59,59,0,0,1-2.38,10.7c-.44,1.47-.89,2.94-1.36,4.4.11-1.64.18-3.29.16-4.95a5,5,0,0,0-8.46-3.51c-16.8,16.2-29.6,35.85-41,56.08-12.9,22.9-25,46.24-37.47,69.39q-38.71,72.07-77.06,144.34-14.47,27.34-28.82,54.77a588.07,588.07,0,0,1,22.7-56.49C469.85,545.27,485,516.67,500.39,488.22ZM416.74,654q-1.62,6.28-2.95,12.64c-3.51,3.65-8.23,8.17-12,9.78q14.08-31,27.56-62.26A417.21,417.21,0,0,0,416.74,654ZM518.13,283.12c-.07-.1,0-.59,0,0Zm10.63-17.57c.49,0,.28,0,0,0Zm-2.78.39a6,6,0,0,1,2.4-.37,1.75,1.75,0,0,1,.33.57,68.51,68.51,0,0,1,.93,11.16,166.46,166.46,0,0,1-4.1,28.25c-6.39,29.74-15.13,59.13-24.12,88.17C481,459.67,456.47,524.3,429.75,587.93q-4.92,11.7-9.94,23.36l31.56-103.36c15.17-43.52,31.05-86.78,46.71-130.12,7-19.46,14.06-38.93,20.56-58.57,3.62-10.92,8.26-22.56,9.29-34.13.37-4.22-.84-8.09-5.42-9.36a8.69,8.69,0,0,0-8.67,2.38l.55-.92C517.26,272.69,521.35,267.46,526,265.94Zm-17.11,51.24c2-8.2,4-16.78,7.48-24.48l-.48,1.87c-1.73,6.39-3.74,12.7-5.79,19C509.68,314.76,509.27,316,508.87,317.18Zm12-31.8a1.09,1.09,0,0,0,.09-.25C521,284.85,521.05,285.2,520.89,285.38ZM502.6,302.51c-2.37,8-4.23,16.22-6.39,24.32-3.65,13.72-8,27.31-12.27,40.89C489.28,345.78,494.79,323.73,502.6,302.51Zm-77.09-66.27h0l.09,0Zm-2.35.67h0Zm-2.38,11.88c.56-2,1.15-4,1.82-6,.26-.78.54-1.56.82-2.33.23-.62.46-1.15.54-1.34s.27-.55.41-.83v0c.28.52.56,1,.83,1.55l.2.35a2.35,2.35,0,0,0,.13.39c.25.68.49,1.37.7,2.06a66.87,66.87,0,0,1,2.16,10.09c.15,1,.43,3.31.63,5.44.24,2.45.42,4.9.56,7.35.32,5.42.46,10.84.51,16.27.1,13.36-.37,26.72-1.09,40.06-1.75,33-5,65.94-8.71,98.78q-6,53-14.08,105.7c-4.56,30.06-9.49,60.08-15.29,89.93-2.75,14.11-5.28,28.6-9.31,42.51,0-4.75.26-9.51.57-14.24,2.67-41.16,9-82.16,14.43-123,7.7-57.5,15.49-115,22-172.64,3.22-28.6,6.12-57.23,8.47-85.91.45-5.54-7-6.23-9.29-2.14C418.69,256.81,419.67,252.78,420.78,248.79ZM380.62,530.32q5.6-55.86,12.63-111.56c4.68-37.48,9.72-74.94,15.89-112.21,2.35-14.18,4.84-28.36,7.91-42.41-5,60.34-12.28,120.47-20.11,180.49-6.73,51.56-14.17,103-20.24,154.68q-.65,5.51-1.27,11C374.92,583.6,378,556.88,380.62,530.32Zm411.31,3.49c-2.81,2.55-5.62,5.09-8.46,7.61a1692.27,1692.27,0,0,1-181,140.39c-23.66,15.9-47.67,32.41-73.09,45.77C582.84,683.92,635,638.6,687.5,593.8q23.31-19.87,46.77-39.57c1.54-1.14,3.07-2.28,4.62-3.4,22.82-16.58,46.65-31.83,71.91-44.35Q801.79,520.43,791.93,533.81ZM716.22,616.9a548.48,548.48,0,0,1-120.54,81.7C648.71,663.93,699.5,625.4,748,585c1.65-1.37,3.29-2.76,4.93-4.15Q735.46,599.71,716.22,616.9Zm140-151.81a16.94,16.94,0,0,1-2.32,5.91,74.8,74.8,0,0,1-9.61,13,281.81,281.81,0,0,1-20.43,20.47c1.47-2.35,2.94-4.7,4.37-7.07,2.8-4.63-2.56-8.64-6.78-6.78-8,3.5-15.84,7.3-23.53,11.33,13.3-10.72,26.87-21.18,41.29-30.2A85.08,85.08,0,0,1,851.56,465a36.65,36.65,0,0,1,4.21-1.36l.28,0A8.71,8.71,0,0,1,856.18,465.09Zm.45-1.53c.2,0,.33,0,.33,0C857,463.82,856.81,463.74,856.63,463.56Z"/><path class="cls-1" d="M630.16,297.08v0C630.08,297.07,630.1,297.08,630.16,297.08Z"/><path class="cls-1" d="M630.17,297.08h0Z"/><path class="cls-2" d="M320.24,537.41H306.57V454.84H251.88v82.57H238.21v-95.7h82Z"/><path class="cls-2" d="M420,441.71v4.1q0,16.54-7.8,29.12a52,52,0,0,1-21.53,19.42,68.2,68.2,0,0,1-30.83,6.83v36.23H346.21v-95.7ZM381.83,484.5a40.21,40.21,0,0,0,15.92-12,39.51,39.51,0,0,0,7.93-18.18h-45.8v34.45A54.6,54.6,0,0,0,381.83,484.5Z"/><path class="cls-2" d="M451.48,532.29a47.61,47.61,0,0,1-18-17.78,50.66,50.66,0,0,1,0-49.9,47.58,47.58,0,0,1,18-17.77,52.52,52.52,0,0,1,50.58,0,47.54,47.54,0,0,1,18.05,17.77,50.73,50.73,0,0,1,0,49.9,47.56,47.56,0,0,1-18.05,17.78,52.52,52.52,0,0,1-50.58,0Zm43.27-11.42a34.94,34.94,0,0,0,12.85-13.06,37.64,37.64,0,0,0,0-36.5,35.46,35.46,0,0,0-61.66,0,37.71,37.71,0,0,0,0,36.5,35.74,35.74,0,0,0,48.81,13.06Z"/><path class="cls-2" d="M655.87,441.71v95.7H642.19v-77.1l-41,44.7-41-44.7v77.1H546.5v-95.7h14.08l40.87,44.16,40.74-44.16Z"/><path class="cls-2" d="M695.51,441.71v95.7H681.84v-95.7Z"/><path class="cls-2" d="M803.52,441.71v95.7H789.84V496.12H735.16v41.29H721.49v-95.7h13.67V483h54.68V441.71Z"/><path class="cls-2" d="M874.67,484.71a50,50,0,0,1,21.13,19.34q7.51,12.59,7.52,29.26v4.1H829.49v-95.7h13.67v36.23Q861.07,477.94,874.67,484.71Zm-31.51,40.12h45.39q-2.46-16-14.35-25.22t-31-9.23Z"/><path class="cls-2" d="M361.66,653.38H348V570.8H293.31v82.58H279.63v-95.7h82Z"/><path class="cls-2" d="M406.09,648.25a47.58,47.58,0,0,1-18-17.77,50.66,50.66,0,0,1,0-49.9,47.58,47.58,0,0,1,18-17.77,52.47,52.47,0,0,1,50.59,0,47.58,47.58,0,0,1,18,17.77,50.66,50.66,0,0,1,0,49.9,47.58,47.58,0,0,1-18,17.77,52.47,52.47,0,0,1-50.59,0Zm43.27-11.41a34.94,34.94,0,0,0,12.85-13.06,37.64,37.64,0,0,0,0-36.5,35.44,35.44,0,0,0-61.65,0,37.64,37.64,0,0,0,0,36.5,35.75,35.75,0,0,0,48.8,13.06Z"/><path class="cls-2" d="M562.08,615.24A49.35,49.35,0,0,1,573,631.09a45.63,45.63,0,0,1,3.83,18.19v4.1H501.11v-95.7h73.14v4.1a42.83,42.83,0,0,1-8.07,25.43,53.77,53.77,0,0,1-20.78,17.5A46.79,46.79,0,0,1,562.08,615.24Zm-47.57-45.39v29.8h8.75A37.92,37.92,0,0,0,539.11,596a37.14,37.14,0,0,0,13.47-10.39,29.2,29.2,0,0,0,6.49-15.79Zm0,71.36h47.3A31.87,31.87,0,0,0,555.25,626a37.89,37.89,0,0,0-13.2-10.74,37,37,0,0,0-16.61-3.89H514.51Z"/><path class="cls-2" d="M660.65,653.38l-5.06-13.13-67.26,14.63q-.55-5.75-.55-8.61a66.11,66.11,0,0,1,6-28,60,60,0,0,1,16.54-21.6,57.06,57.06,0,0,1,24-11.69l-10.53-27.34h15l36.91,95.7Zm-9.57-24.88-12-31.31a45.78,45.78,0,0,0-18.66,7.72,40.84,40.84,0,0,0-12.71,14.7,45.61,45.61,0,0,0-5,19.41Z"/><path class="cls-2" d="M755.94,570.8H705.36v82.58H691.69v-95.7h64.25Z"/><path class="cls-2" d="M855.06,557.68v95.7H841.39V576.14l-56.06,61.11v16.13H771.66v-95.7h13.67v61.11l56.06-61.11Z"/></svg>