<svg width="328" height="369" viewBox="0 0 328 369" fill="none" xmlns="http://www.w3.org/2000/svg">
<path d="M327.119 152.295C324.388 146.843 317.872 149.421 313.713 151.44C306.686 154.86 300.249 159.635 294.001 164.292C276.974 176.953 260.726 190.666 244.458 204.254C242.33 206.036 240.215 207.832 238.086 209.621C222.769 220.953 208.014 233.153 193.403 245.229C157.902 274.615 122.878 304.633 88.7651 335.637C88.1102 336.222 87.4553 336.827 86.8528 337.459L85.805 338.307C85.4975 338.549 85.2395 338.848 85.0453 339.188C81.7709 340.372 78.3982 341.431 75.0124 342.332C72.6352 342.99 61.9146 346.542 62.7594 341.102C63.1524 338.511 65.4838 335.893 66.9245 333.802C68.7277 331.171 70.5679 328.582 72.4452 326.034C76.0995 321.053 79.8935 316.188 83.8272 311.44C85.6347 310.751 87.4291 310.043 89.2104 309.315C112.302 299.983 133.612 287.743 152.499 271.425C178.04 249.359 200.358 223.742 222.48 198.302C234.033 185.016 245.482 171.643 256.829 158.182C262.199 151.841 267.779 145.613 272.94 139.108C276.034 135.03 278.234 130.341 279.397 125.349C280.327 121.521 280.883 116.141 277.006 113.701C275.212 112.57 273.077 112.629 271.112 113.076C266.921 114.017 262.946 116.529 259.357 118.805C245.729 127.427 233.293 138.082 221.112 148.546C203.993 163.22 187.378 178.485 170.98 193.928C153.429 210.498 136.153 227.348 119.152 244.479C117.665 245.979 116.192 247.485 114.712 248.991C128.563 232.792 141.922 216.145 155.066 199.42C177.706 170.606 200.45 141.154 218.741 109.314C224.124 99.9288 230.437 89.3135 231.734 78.3364C232.5 71.8317 229.2 65.3862 221.911 66.0834C214.32 66.8003 207.379 73.0682 201.936 77.876C192.604 86.1236 184.255 95.5025 176.147 104.96C153.966 130.9 133.736 158.557 114.05 186.437C110.361 191.668 106.696 196.916 103.055 202.182C108.931 191.277 114.734 180.338 120.462 169.363C139.905 136.05 160.475 103.198 174.49 67.0699C176.671 61.44 186.239 39.9002 173.573 39.4463C169.369 39.3017 165.584 42.0377 162.499 44.5896C157.712 48.5358 153.658 53.4226 149.82 58.283C138.687 72.3644 129.113 87.6363 119.84 102.967C109.695 119.732 100.062 136.806 90.6446 153.992C81.2928 171.092 72.0065 188.193 63.3685 205.648C60.5132 211.416 57.7037 217.237 54.9924 223.104C61.0829 208.13 66.9551 193.068 72.609 177.919C87.5142 137.957 101.149 97.1336 110.678 55.4943C112.025 49.7075 113.031 43.846 113.69 37.9402C114.234 32.9351 115.079 26.1936 112.21 21.6949C109.741 17.8276 104.79 18.3209 101.188 20.1493C97.39 22.1224 94.5543 25.6609 92.2753 29.1796C85.3597 39.8673 81.5941 52.8175 78.1035 64.9521C73.9318 79.4216 70.5788 94.1476 67.0686 108.808C60.2119 137.418 51.6984 165.666 43.2961 193.849C36.7472 215.698 30.2966 237.659 22.7588 259.205C24.3043 251.253 25.6992 243.275 27.0811 235.311C30.9013 213.225 34.2958 191.082 37.2646 168.883C40.4735 145.205 43.3289 121.528 45.5293 97.7452C47.3564 77.9483 48.902 58.0462 48.8954 38.1507C48.9799 31.2408 48.6343 24.3324 47.8607 17.4659C47.2975 12.9935 46.6492 8.0081 44.2588 4.08161C42.3531 0.950935 38.057 -1.71935 34.8546 1.37186C31.7701 4.34468 30.7222 9.8694 29.6744 13.8288C24.6449 32.6786 21.9729 52.2913 19.1176 71.5949C15.2276 97.8307 11.9138 124.152 8.80966 150.519C6.1901 173.164 3.68842 195.835 1.68446 218.546C1.02957 225.899 0.374675 233.272 0.10617 240.651C-0.184479 249.799 0.121787 258.956 1.02301 268.064C1.62551 274.385 2.2935 280.909 3.93072 287.092C3.99621 290.091 4.42189 293.011 5.71202 295.313C7.30995 298.141 9.81817 298.299 11.7632 296.944L12.0645 296.878C14.3238 296.221 15.7056 293.767 16.7666 291.847C16.9303 291.551 17.0743 291.242 17.2315 290.939C16.629 292.912 16.02 294.931 15.4175 296.924C15.2568 297.479 15.2492 298.067 15.3957 298.625C15.5423 299.184 15.8373 299.691 16.2492 300.094C20.6959 303.666 25.7385 302.173 29.9429 299.134C29.9192 300.075 30.1995 300.998 30.7419 301.765C31.1807 304.823 32.5232 307.645 35.372 309.362C37.4287 310.569 39.8279 311.053 42.1894 310.736C42.496 310.77 42.8043 310.788 43.1128 310.789C42.7913 312.193 42.9769 313.666 43.6367 314.945C44.2884 316.048 45.2467 316.935 46.3937 317.497C46.8154 317.806 47.3054 318.007 47.8214 318.083C51.7508 319.359 57.0423 318.609 60.2971 318.083C64.4063 317.443 68.4674 316.522 72.4518 315.327C72.0065 315.893 71.5611 316.458 71.142 317.03C67.1537 322.226 63.2833 327.554 59.6553 332.973C56.8851 337.136 54.2655 342.983 58.1556 347.377C61.3187 350.961 66.4334 350.843 70.7425 350.04C73.7761 349.462 76.7774 348.724 79.7342 347.831C78.9629 349.84 78.6893 352.007 78.9369 354.146C79.1844 356.285 79.9457 358.332 81.1553 360.11C87.5339 369.976 99.8393 369.647 110.121 368.325C114.208 367.798 114.26 361.268 110.121 361.8C102.315 362.807 89.754 364.431 85.8901 355.223C84.266 351.362 86.3617 347.587 88.8699 344.7C89.4658 344.476 90.0552 344.233 90.6512 343.996C98.2544 343.838 105 338.735 111.287 334.913C118.785 330.309 127.462 327.817 135.518 324.39C152.345 317.151 168.593 308.622 184.117 298.878C215.015 279.495 242.868 255.599 266.757 227.977C272.931 220.826 278.814 213.44 284.407 205.819C291.139 199.716 297.834 193.564 304.492 187.364C310.386 181.866 316.28 176.236 321.297 169.862C324.781 165.37 330.118 158.28 327.119 152.295ZM37.1729 301.752C38.0549 301.42 38.9127 301.027 39.7401 300.575C39.4716 301.107 39.2031 301.634 38.9542 302.166C38.7577 302.581 38.5416 303.021 38.2993 303.482C37.7808 303.013 37.3926 302.417 37.1729 301.752ZM156.834 82.2497C152.695 91.0038 148.399 99.6855 144.116 108.367C135.275 126.274 126.249 144.085 117.037 161.799L116.277 163.253C95.8444 198.769 77.0622 236.054 51.0435 267.781C58.9021 252.72 66.8001 237.676 74.7374 222.65C90.5595 192.694 106.478 162.786 122.492 132.926C129.892 119.114 137.102 105.131 144.824 91.4905C150.325 81.763 156.31 72.3052 163.573 63.8669C162.224 70.2203 159.631 76.3172 156.834 82.2497ZM39.131 290.775C41.1808 288.683 43.1782 286.539 45.1495 284.428C49.6027 279.64 53.8595 274.661 57.946 269.551C55.0521 274.458 51.852 279.177 48.365 283.678C45.7127 287.032 41.9798 291.932 37.6903 294.543C38.0911 293.258 38.5723 291.999 39.131 290.775ZM214.104 85.5711V85.7619C214.088 85.6927 214.088 85.6206 214.104 85.5514V85.5711ZM88.6538 267.755C87.1279 269.728 85.5627 271.701 83.9517 273.635C81.1094 276.595 78.1995 279.493 75.222 282.33C69.9579 287.447 64.2607 292.095 58.1949 296.221L57.8936 296.418C63.2375 287.638 68.9743 279.087 74.7636 270.603C92.7337 244.255 111.595 218.506 130.724 192.994C149.441 168.034 168.452 143.258 188.256 119.147C194.929 111.018 201.668 102.895 208.852 95.2065C209.717 94.2857 210.588 93.3715 211.472 92.4704C208.601 97.8844 205.444 103.14 202.015 108.216C191.308 124.599 179.69 140.384 168.131 156.169C155.033 174.078 141.778 191.876 128.838 209.923C115.223 228.964 103.101 249.234 88.6538 267.709V267.755ZM144.686 269.564C129.198 282.606 111.47 292.833 92.8778 300.798C93.238 300.384 93.5916 299.963 93.9584 299.555L97.5275 297.523C114.142 287.993 130.272 277.272 145.072 265.098C153.521 258.153 161.255 250.346 169.068 242.736C179.066 232.958 188.946 223.058 198.708 213.034C206.235 205.343 213.733 197.631 221.203 189.896C217.842 193.768 214.475 197.631 211.105 201.485C190.201 225.287 168.976 249.109 144.686 269.564ZM265.749 128.993C265.808 128.993 265.782 129.131 265.749 129.243C265.748 129.225 265.748 129.208 265.749 129.19C265.747 129.208 265.747 129.225 265.749 129.243C265.719 129.162 265.719 129.073 265.749 128.993ZM255.434 144.219C242.474 159.188 228.198 173.125 214.478 187.384C196.101 206.457 177.601 225.438 158.55 243.854C145.75 256.352 131.863 267.677 117.056 277.693C114.511 279.403 111.939 281.093 109.342 282.764C128.988 262.053 149.945 242.473 170.246 222.42C194.477 198.413 218.649 174.249 243.673 151.039C249.986 145.179 256.567 138.707 263.378 133.669C261.035 137.407 258.377 140.936 255.434 144.219ZM273.555 119.272C274.118 119.226 273.634 119.417 273.555 119.272V119.272ZM124.607 248.228C156.147 216.494 188.459 185.378 222.29 156.077C234.426 145.554 246.738 135.03 260.091 126.079C262.193 124.678 264.328 123.317 266.535 122.087C267.478 121.561 268.434 121.063 269.403 120.594C270.024 120.248 270.683 119.979 271.368 119.791C271.933 119.604 272.508 119.448 273.09 119.325L273.411 119.285H273.503C273.503 119.68 273.581 121.258 273.503 121.738C273.227 123.657 272.719 125.534 271.99 127.329C271.856 126.924 271.676 126.535 271.453 126.171C267.452 119.594 257.294 130.242 254.184 132.886C229.298 153.992 206.377 177.61 183.161 200.498C170.155 213.324 157.164 226.162 144.188 239.013C128.039 254.936 111.653 270.629 96.2767 287.315C94.0937 289.687 91.9282 292.084 89.7802 294.504C82.6818 298.45 75.3878 302.031 67.9265 305.231C64.0264 306.927 60.039 308.414 55.9813 309.684C58.9078 307.074 61.9681 304.62 65.1498 302.331C71.9737 297.312 79.1317 292.748 85.8705 287.624C92.1378 282.863 97.2066 276.351 102.649 270.689C109.905 263.129 117.224 255.642 124.607 248.228ZM151.333 146.284C167.83 124.54 184.824 102.158 205.087 83.7493C208.104 80.8977 211.355 78.306 214.805 76.0015C216.164 75.1077 217.579 74.3036 219.042 73.5944C219.88 73.1866 219.258 73.476 219.455 73.4036C219.651 73.3313 220.025 73.1734 220.319 73.0879C220.974 72.8906 221.564 72.7262 222.205 72.5881L222.978 72.5552H223.378C223.486 72.6114 223.604 72.6492 223.725 72.667C223.846 72.7105 223.977 72.7241 224.105 72.7064C224.181 72.7875 224.262 72.8643 224.347 72.9366L224.452 73.0156C224.511 73.0616 224.655 73.2129 224.773 73.3378C224.876 73.4779 224.962 73.6303 225.028 73.7917C225.028 73.7917 225.028 73.864 225.028 73.91C225.106 74.206 225.205 74.502 225.257 74.8111C225.257 74.9163 225.29 74.9821 225.303 75.0281C225.316 75.0742 225.303 75.1531 225.303 75.2452C225.412 76.6318 225.294 78.0269 224.956 79.3756C222.775 89.9514 216.757 99.8236 211.295 109.084C202.965 123.205 193.665 136.754 184.124 150.079C165.99 175.446 146.729 200.084 126.853 224.182C129.735 219.947 132.649 215.731 135.629 211.574C149.166 192.705 163.049 174.085 176.743 155.327C188.413 139.345 200.221 123.363 210.797 106.591C213.973 101.534 217.202 96.3509 219.396 90.7604C220.496 87.9586 221.793 83.3086 218.499 81.4079C213.993 78.7771 207.817 86.8339 205.283 89.5042C187.444 108.301 171.602 129.203 155.708 149.638C134.083 177.411 112.987 205.58 92.4194 234.146C77.1539 255.377 61.3711 276.72 48.4763 299.522C47.9851 300.39 47.2975 301.495 46.5771 302.706L45.7716 303.087L45.9091 302.817C47.5071 299.812 49.2229 296.898 50.9518 293.932C63.9906 271.846 78.169 250.412 92.4718 229.135C111.378 201.018 130.855 173.263 151.333 146.277V146.284ZM217.091 87.3798C217.569 86.9918 217.287 87.3469 217.091 87.3798V87.3798ZM173.724 46.0102C173.665 46.1023 173.606 46.0497 173.56 45.951C174.261 45.8327 173.501 46.3522 173.724 46.0102ZM88.4246 171.711C105.484 140.055 122.878 108.321 143.095 78.56C150.082 68.2735 157.856 56.2901 167.633 48.7792C168.922 47.8121 170.307 46.9812 171.766 46.2996C172.121 46.1689 172.487 46.0677 172.859 45.9971C172.8 45.9971 172.408 45.9971 173.134 45.9971H173.41C173.619 45.9971 173.488 45.9971 173.41 45.9971C173.331 45.9971 173.41 46.1549 173.41 46.3194C173.427 46.8525 173.412 47.3863 173.364 47.9176C173.063 50.3069 172.541 52.6629 171.805 54.955C171.517 55.9218 171.222 56.8887 170.914 57.8489C170.986 56.7703 171.032 55.6851 171.019 54.5933C171.007 53.9543 170.809 53.3329 170.45 52.805C170.092 52.2771 169.588 51.8655 169 51.6206C168.412 51.3757 167.766 51.3081 167.141 51.4261C166.516 51.544 165.938 51.8424 165.479 52.2847C154.477 62.9395 146.094 75.8634 138.628 89.1688C130.18 104.23 122.256 119.581 114.09 134.807C97.1892 166.407 80.3672 198.052 63.6239 229.74C57.3064 241.728 51.0151 253.735 44.75 265.762C49.0632 253.128 54.0252 240.727 59.616 228.609C68.4242 209.233 78.3458 190.422 88.4246 171.711ZM33.643 280.745C32.9358 283.498 32.2918 286.27 31.7111 289.058C29.4125 291.459 26.3214 294.432 23.8525 295.491C29.9997 281.898 36.0159 268.248 41.9012 254.542C38.7144 263.132 35.9582 271.877 33.643 280.745ZM100.042 36.8155C99.9965 36.7498 100.042 36.4275 100.042 36.8155V36.8155ZM107.004 25.2597C107.325 25.2597 107.187 25.2597 107.004 25.2597V25.2597ZM105.183 25.5162C105.685 25.3283 106.22 25.2455 106.755 25.2728C106.85 25.3829 106.923 25.5102 106.971 25.6477C107.373 28.0736 107.577 30.5284 107.58 32.9877C107.216 39.2469 106.318 45.4631 104.895 51.5678C100.71 71.1279 94.9865 90.4579 89.0991 109.558C75.7263 152.933 59.6618 195.441 42.1632 237.29C40.0151 242.42 37.8453 247.542 35.6536 252.654L56.3219 184.674C66.2565 156.051 76.6562 127.598 86.9118 99.0935C91.496 86.2946 96.1195 73.4891 100.376 60.5718C102.747 53.3897 105.786 45.734 106.46 38.1244C106.703 35.3488 105.91 32.8035 102.911 31.9683C101.912 31.6844 100.855 31.6803 99.8545 31.9562C98.8537 32.2321 97.9472 32.7775 97.2328 33.5336L97.593 32.9285C99.4725 29.9557 102.151 26.5159 105.196 25.5162H105.183ZM93.978 59.2169C95.2878 53.8238 96.5976 48.1807 98.8766 43.1163L98.5622 44.3462C97.4293 48.549 96.1129 52.6991 94.7704 56.8426C94.5085 57.6253 94.24 58.4408 93.978 59.2169ZM101.837 38.3019C101.863 38.2498 101.883 38.1945 101.896 38.1375C101.922 37.9534 101.955 38.1836 101.85 38.3019H101.837ZM89.8719 49.5684C88.3198 54.8301 87.1017 60.2364 85.6871 65.5638C83.2968 74.5875 80.448 83.5257 77.6516 92.4573C81.1487 78.0273 84.7572 63.5249 89.8719 49.5684ZM39.3864 5.98237H39.4454H39.3864ZM36.2888 14.2365C36.6555 12.9211 37.0419 11.6057 37.4807 10.2903C37.651 9.77732 37.8344 9.26432 38.0177 8.75788C38.1684 8.35011 38.319 8.00152 38.3713 7.87655C38.4237 7.75159 38.5482 7.51481 38.6399 7.33066C38.8232 7.67266 39.0066 7.98836 39.1834 8.3501L39.3144 8.5803C39.3353 8.66814 39.3637 8.75396 39.3995 8.8368C39.5633 9.28404 39.7204 9.73786 39.858 10.1917C40.499 12.3639 40.9719 14.5825 41.2725 16.8279C41.3708 17.4856 41.5541 19.0049 41.6851 20.4058C41.8423 22.0172 41.9601 23.6286 42.0518 25.2399C42.2614 28.8047 42.3531 32.3695 42.3858 35.9408C42.4513 44.7277 42.1435 53.5146 41.672 62.2884C40.5259 83.9927 38.3976 105.657 35.9679 127.256C33.3484 150.495 30.2747 173.668 26.7471 196.776C23.7608 216.546 20.5322 236.291 16.7338 255.923C14.9329 265.203 13.276 274.733 10.6368 283.882C10.6368 280.758 10.8071 277.627 11.0101 274.516C12.7586 247.445 16.9041 220.479 20.4601 193.619C25.5028 155.801 30.6044 117.983 34.8677 80.0727C36.9764 61.2624 38.8756 42.4323 40.4146 23.5694C40.7093 19.9257 35.8304 19.4719 34.3307 22.1619C34.9201 19.5113 35.5619 16.8608 36.2888 14.2365ZM9.98845 199.4C12.4334 174.907 15.1905 150.449 18.2597 126.027C21.3246 101.376 24.6252 76.7382 28.6659 52.2255C30.2049 42.8993 31.8356 33.5731 33.8461 24.3323C30.5716 64.0182 25.804 103.566 20.6762 143.041C16.2688 176.953 11.3965 210.785 7.42129 244.775C7.13751 247.191 6.86026 249.603 6.58957 252.01C6.25558 234.442 8.27264 216.869 9.98845 199.4ZM279.351 201.695C277.511 203.373 275.67 205.043 273.811 206.7C236.421 240.132 196.818 270.981 155.276 299.036C139.781 309.493 124.057 320.352 107.41 329.139C142.42 300.423 176.579 270.616 210.961 241.151C221.138 232.439 231.348 223.764 241.59 215.126C242.599 214.376 243.601 213.626 244.616 212.889C259.56 201.985 275.166 191.955 291.709 183.72C287.775 189.837 283.656 195.829 279.351 201.695ZM229.769 256.344C205.951 277.7 179.404 295.77 150.829 310.078C185.558 287.276 218.82 261.934 250.582 235.363C251.662 234.462 252.736 233.548 253.81 232.634C246.183 240.903 238.169 248.807 229.769 256.344ZM321.454 156.498C321.196 157.878 320.68 159.197 319.934 160.385C318.15 163.455 316.04 166.322 313.641 168.935C309.414 173.65 304.948 178.144 300.262 182.398C301.224 180.853 302.187 179.307 303.123 177.748C304.957 174.703 301.447 172.066 298.683 173.289C293.444 175.591 288.31 178.09 283.274 180.741C291.984 173.69 300.871 166.811 310.314 160.878C312.883 159.177 315.589 157.692 318.402 156.439C319.302 156.085 320.223 155.786 321.159 155.544H321.342C321.397 155.859 321.426 156.178 321.428 156.498H321.454ZM321.749 155.492C321.879 155.492 321.965 155.492 321.965 155.492C321.965 155.663 321.84 155.61 321.722 155.492H321.749Z" fill="white"/>
</svg>
