<svg id="Слой_1" data-name="Слой 1" xmlns="http://www.w3.org/2000/svg" width="1080" height="1080" viewBox="0 0 1080 1080"><defs><style>.cls-1{fill:#a9a9a9;}.cls-2{fill:#2e3033;}</style></defs><title>promin_ukr_black</title><path class="cls-1" d="M722.84,339.47l-.06-.05C722.38,339.11,723.7,340.2,722.84,339.47Z"/><path class="cls-1" d="M879.7,460.14c-4.18-8.3-14.13-4.38-20.47-1.31-10.73,5.2-20.56,12.46-30.11,19.54-26,19.25-50.8,40.1-75.64,60.76-3.25,2.71-6.49,5.44-9.73,8.16-23.4,17.23-45.9,35.78-68.23,54.17-54.21,44.65-107.71,90.29-159.78,137.43-1,.89-2,1.81-2.92,2.77L511.21,743a4.55,4.55,0,0,0-1.15,1.34c-5,1.81-10.15,3.42-15.32,4.79-3.63,1-19.95,6.39-18.71-1.87.59-4,4.16-7.93,6.35-11.11q4.13-6,8.43-11.81c5.58-7.57,11.4-14.95,17.38-22.19,2.77-1.05,5.51-2.13,8.22-3.22,35.26-14.2,67.8-32.81,96.64-57.62,39-33.55,73.09-72.5,106.87-111.18q26.46-30.3,52.45-61c8.2-9.64,16.72-19.11,24.59-29a55.25,55.25,0,0,0,9.85-20.88c1.42-5.82,2.27-14-3.66-17.71-2.73-1.71-6-1.62-9-.95-6.41,1.43-12.48,5.26-17.95,8.71-20.78,13.11-39.77,29.31-58.41,45.22-26.14,22.31-51.52,45.52-76.56,69.06Q601,561.26,562.09,600.34c-2.27,2.28-4.52,4.58-6.78,6.86,21.15-24.63,41.55-49.94,61.61-75.37,34.57-43.81,69.31-88.59,97.23-137,8.23-14.27,17.87-30.41,19.85-47.09,1.17-9.89-3.88-19.7-15-18.64-11.6,1.1-22.19,10.63-30.5,17.93-14.26,12.54-27,26.8-39.38,41.18-33.88,39.44-64.77,81.49-94.82,123.88Q545.8,524,537.46,536q13.45-24.87,26.59-49.9c29.73-50.68,61.19-100.62,82.58-155.55,3.34-8.55,18-41.31-1.4-42-6.42-.21-12.19,3.94-16.91,7.82-7.31,6-13.5,13.43-19.35,20.82-17,21.41-31.63,44.63-45.79,67.95-15.48,25.49-30.2,51.44-44.57,77.57-14.29,26-28.47,52-41.66,78.55-4.35,8.76-8.64,17.61-12.78,26.53q13.95-34.14,26.89-68.7c22.72-60.79,43.59-122.86,58.13-186.17a231.51,231.51,0,0,0,4.61-26.69c.82-7.61,2.12-17.86-2.26-24.7-3.77-5.88-11.33-5.13-16.83-2.34-5.81,2.94-10.13,8.37-13.61,13.72-10.57,16.25-16.31,35.95-21.64,54.39-6.37,22-11.5,44.39-16.86,66.68-10.46,43.5-23.46,86.45-36.3,129.31-9.94,33.21-19.84,66.6-31.35,99.36,2.36-12.08,4.49-24.22,6.59-36.32,5.83-33.58,10.95-67.29,15.56-101.06,4.9-36,9.25-72,12.61-108.15,2.8-30.11,5.16-60.37,5.14-90.62a250.3,250.3,0,0,0-1.58-31.45c-.86-6.8-1.84-14.38-5.5-20.35-2.91-4.76-9.46-8.82-14.35-4.12-4.71,4.52-6.31,12.92-7.91,18.94-7.66,28.71-11.76,58.53-16.13,87.87-5.93,39.89-11,79.91-15.73,120-4,34.43-7.82,68.9-10.88,103.43-1,11.18-2,22.39-2.42,33.61a322.38,322.38,0,0,0,1.4,41.69c.92,9.6,1.95,19.52,4.44,28.92.11,4.56.76,9,2.73,12.5,2.44,4.31,6.26,4.54,9.24,2.49l.45-.11c3.46-1,5.57-4.73,7.18-7.65.25-.45.48-.92.72-1.37-.93,3-1.85,6.06-2.78,9.09a4.88,4.88,0,0,0,1.28,4.83c6.79,5.42,14.49,3.15,20.91-1.47a6.55,6.55,0,0,0,1.22,4c.67,4.65,2.71,8.94,7.07,11.56A16.32,16.32,0,0,0,444.62,701q.69.08,1.41.09a9.16,9.16,0,0,0,.83,6.27,10.11,10.11,0,0,0,4.22,3.88,4.92,4.92,0,0,0,2.18.89c6,2,14.07.8,19.05.05A139.42,139.42,0,0,0,490.82,708c-.67.86-1.35,1.72-2,2.59-6.08,7.9-12,15.95-17.54,24.24C467,741.17,463,750.06,469,756.75c4.84,5.44,12.64,5.27,19.23,4a131.62,131.62,0,0,0,13.74-3.36,20.21,20.21,0,0,0,2.18,18.67c9.73,15,28.53,14.51,44.22,12.49,6.25-.8,6.33-10.72,0-9.91-11.91,1.52-31.1,4-37-10-2.47-5.86.73-11.61,4.55-16l2.72-1.07c11.61-.25,21.92-8,31.51-13.82,11.46-7,24.71-10.78,37-16A543.86,543.86,0,0,0,661.32,683a560.16,560.16,0,0,0,126.2-107.8q14.13-16.3,26.94-33.69,15.42-13.92,30.68-28.06c9-8.35,18-16.91,25.66-26.61C876.13,480,884.28,469.24,879.7,460.14ZM437,687.37a31.4,31.4,0,0,0,3.92-1.78c-.41.8-.82,1.6-1.21,2.41-.3.63-.63,1.3-.94,2A6.08,6.08,0,0,1,437,687.37ZM619.67,353.63c-6.31,13.32-12.87,26.52-19.42,39.71Q580,434.19,558.9,474.58c-.38.74-.77,1.48-1.16,2.22-31.2,54-59.87,110.68-99.61,158.92q18-34.35,36.18-68.61,36.26-68.34,72.93-136.43c11.3-21,22.31-42.26,34.1-63,8.39-14.79,17.54-29.17,28.63-42C627.9,335.34,624,344.62,619.67,353.63ZM440,670.68c3.13-3.18,6.18-6.43,9.18-9.65q10.22-10.92,19.54-22.61A202.47,202.47,0,0,1,454,659.89c-4,5.1-9.74,12.55-16.3,16.52A50.37,50.37,0,0,1,440,670.68Zm267.17-312a2.71,2.71,0,0,1,0,.29A1,1,0,0,1,707.12,358.65Zm-191.55,277q-3.5,4.46-7.18,8.93-6.52,6.75-13.33,13.22a194.29,194.29,0,0,1-26,21.12l-.47.3c8.16-13.35,16.92-26.35,25.76-39.25,27.45-40.06,56.24-79.2,85.45-118,28.59-38,57.62-75.62,87.85-112.28,10.2-12.37,20.49-24.71,31.46-36.41q2-2.1,4-4.16a259.35,259.35,0,0,1-14.43,23.94C672.32,418,654.58,442,636.94,466c-20,27.22-40.24,54.28-60,81.72C556.14,576.7,537.63,607.52,515.57,635.62Zm85.56,2.8c-23.65,19.83-50.72,35.38-79.12,47.49.56-.63,1.1-1.26,1.65-1.89l5.45-3.09c25.38-14.48,50-30.78,72.61-49.3,12.9-10.56,24.71-22.42,36.63-34q22.92-22.3,45.27-45.16Q700.84,534.9,718,517.25q-7.68,8.84-15.41,17.62C670.63,571.11,638.22,607.33,601.13,638.42ZM786,424.71c.08,0,0,.2,0,.37v0a.69.69,0,0,0,0-.08l0,.08A.56.56,0,0,1,786,424.71Zm-15.76,23.14c-19.79,22.76-41.58,43.95-62.53,65.63-28.06,29-56.32,57.87-85.41,85.86a456.23,456.23,0,0,1-63.35,51.45q-5.85,3.9-11.79,7.71c30.05-31.49,62-61.26,93-91.75,37-36.5,73.92-73.24,112.13-108.53,9.64-8.91,19.69-18.75,30.09-26.4A117,117,0,0,1,770.23,447.85Zm27.68-37.93c.85-.07.11.23,0,0ZM570.46,606c48.17-48.25,97.5-95.58,149.16-140.11,18.53-16,37.33-32,57.73-45.61,3.21-2.13,6.47-4.2,9.83-6.07,1.44-.8,2.9-1.55,4.39-2.27a13.44,13.44,0,0,1,2.95-1.22,23.89,23.89,0,0,1,2.64-.71l.48-.05.16,0c0,.6.12,3,0,3.73a36.12,36.12,0,0,1-2.32,8.5,8.43,8.43,0,0,0-.81-1.76c-6.11-10-21.62,6.19-26.38,10.21-38,32.09-73,68-108.45,102.8Q630.1,562.66,600.37,592c-24.67,24.2-49.68,48.06-73.16,73.43q-5,5.43-9.93,10.93a363.44,363.44,0,0,1-33.37,16.31,185,185,0,0,1-18.23,6.74,169.42,169.42,0,0,1,14-11.19c10.42-7.63,21.34-14.57,31.64-22.36,9.57-7.24,17.3-17.14,25.61-25.75Q553.56,622.9,570.46,606Zm40.81-155c25.2-33.07,51.14-67.1,82.09-95.08a111.41,111.41,0,0,1,14.83-11.79,59.69,59.69,0,0,1,6.47-3.66c1.29-.62.34-.17.64-.29s.87-.34,1.31-.48c1-.29,1.91-.55,2.89-.76h0l1.17-.06.61,0a1.82,1.82,0,0,0,.54.17,1.23,1.23,0,0,0,.58.06,4.76,4.76,0,0,0,.37.35l.15.12c.1.08.32.3.5.49a3.94,3.94,0,0,1,.38.69s0,.11.05.18a13.84,13.84,0,0,1,.36,1.37l.06.33c0,.09,0,.19,0,.33a19.47,19.47,0,0,1-.52,6.28c-3.33,16.08-12.52,31.09-20.86,45.17-12.73,21.47-26.93,42.07-41.49,62.33-27.76,38.62-57.18,76.08-87.53,112.72,4.4-6.44,8.85-12.84,13.41-19.17,20.67-28.69,41.87-57,62.78-85.51,17.81-24.31,35.84-48.61,51.94-74.11,4.86-7.69,9.78-15.57,13.14-24.06,1.68-4.27,3.66-11.33-1.38-14.23-6.88-4-16.3,8.25-20.17,12.31-27.25,28.58-51.43,60.36-75.71,91.43q-49.49,63.33-96.59,128.49c-23.3,32.28-47.41,64.73-67.1,99.4-.75,1.32-1.79,3-2.89,4.84-.4.2-.82.39-1.23.58.07-.14.13-.28.21-.41,2.44-4.57,5.06-9,7.7-13.51,19.91-33.58,41.56-66.17,63.4-98.52C550.26,534.22,580,492,611.27,451Zm100.42-89.54c.72-.6.3-.06,0,0Zm-66.22-62.91c-.1.13-.18,0-.26-.1C646.29,298.26,645.12,299.05,645.47,298.54ZM515.22,489.65c26-48.13,52.61-96.38,83.48-141.63,10.67-15.64,22.53-33.86,37.47-45.28a36,36,0,0,1,6.31-3.77,10.43,10.43,0,0,1,1.66-.45c-.09,0-.69,0,.43,0l.41,0h0c.32,0,.12,0,0,0s0,.23,0,.48a21.91,21.91,0,0,1-.07,2.43,57.91,57.91,0,0,1-2.39,10.7c-.43,1.47-.89,2.94-1.35,4.4.1-1.64.17-3.28.16-4.95a5,5,0,0,0-8.47-3.5c-16.8,16.2-29.59,35.84-41,56.07-12.91,22.9-25,46.24-37.48,69.39q-38.7,72.08-77.06,144.34-14.46,27.36-28.81,54.77a586.85,586.85,0,0,1,22.7-56.48C484.67,546.7,499.82,518.1,515.22,489.65ZM431.57,655.42q-1.62,6.3-2.95,12.65c-3.51,3.64-8.23,8.17-12,9.78q14.07-31,27.55-62.27C439.32,628.67,435.05,641.94,431.57,655.42ZM533,284.56c-.06-.1,0-.6,0,0ZM543.58,267c.5,0,.29,0,0,0Zm-2.77.39a5.93,5.93,0,0,1,2.4-.37,2.1,2.1,0,0,1,.33.57c.44,3.76,1.08,7.24.92,11.16-.37,9.51-2.1,19-4.09,28.25-6.4,29.74-15.14,59.13-24.12,88.17-20.4,66-45,130.58-71.67,194.22q-4.92,11.7-9.94,23.35L466.2,509.36c15.17-43.52,31.05-86.78,46.7-130.12,7-19.46,14.06-38.92,20.57-58.57,3.61-10.92,8.26-22.56,9.28-34.13.38-4.22-.83-8.09-5.41-9.36a8.72,8.72,0,0,0-8.68,2.39l.56-.93C532.09,274.12,536.18,268.89,540.81,267.37Zm-17.12,51.24c2-8.2,4-16.78,7.49-24.47-.16.62-.32,1.24-.49,1.86-1.72,6.39-3.73,12.7-5.78,19C524.51,316.2,524.09,317.4,523.69,318.61Zm12-31.8a.81.81,0,0,0,.1-.25C535.83,286.28,535.88,286.63,535.71,286.81Zm-18.29,17.13c-2.37,8-4.23,16.23-6.38,24.32-3.66,13.72-8,27.32-12.27,40.89C504.11,347.21,509.62,325.16,517.42,303.94Zm-77.09-66.27h0l.09,0Zm-2.34.67h0Zm-2.39,11.89c.57-2,1.16-4,1.83-6,.26-.78.54-1.55.82-2.33.23-.62.46-1.15.54-1.34s.27-.55.41-.83v0c.27.52.56,1,.83,1.55l.19.35.13.4c.25.68.49,1.36.71,2.05a68.12,68.12,0,0,1,2.16,10.09c.15,1,.42,3.31.63,5.44.24,2.45.42,4.9.56,7.35.32,5.42.46,10.85.5,16.27.11,13.36-.37,26.73-1.08,40.07-1.76,33-5,65.94-8.72,98.77q-6,53-14.08,105.7c-4.55,30.06-9.48,60.08-15.29,89.93-2.74,14.11-5.27,28.6-9.31,42.51,0-4.75.26-9.5.57-14.24,2.67-41.15,9-82.15,14.43-123,7.7-57.5,15.5-115,22-172.64,3.22-28.6,6.11-57.23,8.46-85.91.46-5.54-7-6.23-9.29-2.13C433.52,258.25,434.49,254.22,435.6,250.23ZM395.45,531.75q5.58-55.86,12.62-111.56c4.69-37.48,9.72-74.94,15.9-112.21,2.34-14.18,4.84-28.36,7.9-42.4-5,60.33-12.28,120.46-20.11,180.49-6.72,51.55-14.17,103-20.23,154.68q-.64,5.5-1.28,11C389.74,585,392.79,558.31,395.45,531.75Zm411.31,3.49q-4.21,3.82-8.46,7.62a1693.47,1693.47,0,0,1-181,140.38c-23.66,15.9-47.67,32.42-73.1,45.77,53.49-43.66,105.62-89,158.16-133.78q23.29-19.87,46.77-39.57c1.54-1.13,3.07-2.28,4.61-3.4,22.82-16.58,46.65-31.83,71.92-44.34Q816.62,521.87,806.76,535.24ZM731,618.33A548.41,548.41,0,0,1,610.51,700c53-34.67,103.82-73.19,152.35-113.61,1.65-1.37,3.28-2.76,4.92-4.14Q750.28,601.14,731,618.33ZM871,466.52a16.73,16.73,0,0,1-2.31,5.91,75.39,75.39,0,0,1-9.61,13,283.7,283.7,0,0,1-20.43,20.46c1.47-2.35,2.94-4.69,4.37-7.07,2.79-4.63-2.56-8.63-6.79-6.78q-12,5.26-23.53,11.33c13.3-10.72,26.87-21.18,41.3-30.19a83.69,83.69,0,0,1,12.39-6.79,38.72,38.72,0,0,1,4.2-1.36l.28,0A8.78,8.78,0,0,1,871,466.52Zm.46-1.52c.2,0,.33,0,.33,0C871.78,465.25,871.64,465.17,871.46,465Z"/><path class="cls-1" d="M645,298.51Z"/><path class="cls-1" d="M645,298.51v0h0v0Z"/><path class="cls-1" d="M645,298.51v0C644.9,298.5,644.93,298.51,645,298.51Z"/><path class="cls-2" d="M335.06,538.84H321.39V456.27H266.71v82.57H253V443.15h82Z"/><path class="cls-2" d="M434.86,443.15v4.1q0,16.54-7.79,29.12a52,52,0,0,1-21.53,19.41,68.24,68.24,0,0,1-30.83,6.84v36.22H361V443.15Zm-38.21,42.79a40.36,40.36,0,0,0,15.93-12,39.7,39.7,0,0,0,7.93-18.19h-45.8v34.45A54.72,54.72,0,0,0,396.65,485.94Z"/><path class="cls-2" d="M466.31,533.72A47.68,47.68,0,0,1,448.26,516a50.73,50.73,0,0,1,0-49.9,47.63,47.63,0,0,1,18.05-17.78,52.52,52.52,0,0,1,50.58,0,47.63,47.63,0,0,1,18.05,17.78,50.73,50.73,0,0,1,0,49.9,47.68,47.68,0,0,1-18.05,17.77,52.52,52.52,0,0,1-50.58,0Zm43.27-11.42a35.06,35.06,0,0,0,12.85-13,37.73,37.73,0,0,0,0-36.51,35.45,35.45,0,0,0-61.66,0,37.66,37.66,0,0,0,0,36.51,35.74,35.74,0,0,0,48.81,13Z"/><path class="cls-2" d="M670.69,443.15v95.69H657v-77.1l-41,44.7-41-44.7v77.1H561.32V443.15H575.4l40.88,44.15L657,443.15Z"/><path class="cls-2" d="M710.34,443.15v95.69H696.67V443.15Z"/><path class="cls-2" d="M818.34,443.15v95.69H804.67V497.56H750v41.28H736.31V443.15H750v41.28h54.69V443.15Z"/><path class="cls-2" d="M889.5,486.14a49.85,49.85,0,0,1,21.12,19.35q7.51,12.57,7.52,29.25v4.1H844.32V443.15H858v36.22Q875.9,479.37,889.5,486.14ZM858,526.27h45.39q-2.46-16-14.36-25.23t-31-9.22Z"/><path class="cls-2" d="M376.49,654.81H362.82V572.24H308.13v82.57H294.46v-95.7h82Z"/><path class="cls-2" d="M420.92,649.68a47.54,47.54,0,0,1-18.05-17.77,50.73,50.73,0,0,1,0-49.9,47.61,47.61,0,0,1,18.05-17.77,52.45,52.45,0,0,1,50.58,0A47.61,47.61,0,0,1,489.55,582a50.73,50.73,0,0,1,0,49.9,47.54,47.54,0,0,1-18.05,17.77,52.45,52.45,0,0,1-50.58,0Zm43.27-11.41A34.94,34.94,0,0,0,477,625.21a37.64,37.64,0,0,0,0-36.5,35.44,35.44,0,0,0-61.66,0,37.71,37.71,0,0,0,0,36.5,35.76,35.76,0,0,0,48.81,13.06Z"/><path class="cls-2" d="M576.91,616.67a49.36,49.36,0,0,1,10.93,15.86,45.37,45.37,0,0,1,3.83,18.18v4.1H515.93v-95.7h73.15v4.1A42.83,42.83,0,0,1,581,588.64a53.77,53.77,0,0,1-20.78,17.5A46.79,46.79,0,0,1,576.91,616.67Zm-47.58-45.39v29.8h8.75a37.81,37.81,0,0,0,15.86-3.62,37.2,37.2,0,0,0,13.47-10.39,29.28,29.28,0,0,0,6.49-15.79Zm0,71.36h47.3a31.86,31.86,0,0,0-6.56-15.17,37.63,37.63,0,0,0-13.19-10.73,36.9,36.9,0,0,0-16.61-3.9H529.33Z"/><path class="cls-2" d="M675.48,654.81l-5.06-13.12-67.26,14.62q-.55-5.73-.55-8.61a66,66,0,0,1,5.95-28,59.75,59.75,0,0,1,16.54-21.6,57.2,57.2,0,0,1,24-11.69l-10.53-27.34h15l36.92,95.7Zm-9.57-24.88-12-31.31a45.66,45.66,0,0,0-18.66,7.73A40.66,40.66,0,0,0,622.5,621a45.76,45.76,0,0,0-5,19.42Z"/><path class="cls-2" d="M770.77,572.24H720.18v82.57H706.51v-95.7h64.26Z"/><path class="cls-2" d="M869.88,559.11v95.7H856.21V577.57l-56.05,61.11v16.13H786.49v-95.7h13.67v61.11l56.05-61.11Z"/></svg>