<svg width="102" height="115" viewBox="0 0 102 115" fill="none" xmlns="http://www.w3.org/2000/svg">
<path d="M101.612 47.4633C100.764 45.764 98.7398 46.5675 97.448 47.1968C95.2653 48.2627 93.2656 49.7508 91.3249 51.202C86.0358 55.1478 80.9888 59.4216 75.9356 63.6563C75.2745 64.2118 74.6174 64.7714 73.9563 65.3289C69.1981 68.8607 64.6149 72.663 60.0765 76.4263C49.0487 85.5846 38.1694 94.9397 27.5729 104.602C27.3695 104.785 27.1661 104.973 26.9789 105.17L26.6534 105.434C26.5579 105.51 26.4778 105.603 26.4175 105.709C25.4003 106.078 24.3527 106.408 23.301 106.689C22.5625 106.894 19.2324 108.001 19.4948 106.306C19.6169 105.498 20.3411 104.682 20.7886 104.03C21.3487 103.21 21.9204 102.404 22.5035 101.61C23.6386 100.057 24.8172 98.5411 26.0391 97.0612C26.6005 96.8467 27.1579 96.626 27.7112 96.3991C34.8841 93.4905 41.5036 89.6759 47.3704 84.5905C55.3041 77.7136 62.2369 69.7298 69.1086 61.8013C72.6971 57.6608 76.2537 53.493 79.7784 49.2978C81.4465 47.3218 83.1797 45.3807 84.7827 43.3535C85.7437 42.0826 86.4273 40.6213 86.7885 39.0654C87.0773 37.8725 87.2502 36.1958 86.0459 35.4353C85.4886 35.0828 84.8254 35.1012 84.2151 35.2406C82.9132 35.5337 81.6784 36.3167 80.5636 37.0259C76.3303 39.7132 72.4672 43.0338 68.6835 46.2949C63.3659 50.8679 58.2049 55.6254 53.1111 60.4382C47.6593 65.6022 42.2929 70.8537 37.0119 76.1926C36.5501 76.66 36.0924 77.1294 35.6327 77.5988C39.9352 72.5502 44.0851 67.3623 48.1679 62.1498C55.2003 53.1698 62.2653 43.991 67.9471 34.0681C69.6192 31.1431 71.5803 27.8348 71.983 24.4138C72.2211 22.3866 71.1958 20.3778 68.9316 20.5951C66.5739 20.8185 64.4176 22.7719 62.7271 24.2703C59.8283 26.8407 57.2346 29.7636 54.7162 32.7112C47.8261 40.7954 41.5422 49.4146 35.4272 58.1036C34.2813 59.7338 33.1427 61.3695 32.0117 63.0107C33.8371 59.6122 35.6395 56.2027 37.4188 52.7824C43.4585 42.4004 49.8482 32.1619 54.2015 20.9025C54.8789 19.148 57.851 12.435 53.9167 12.2936C52.6107 12.2485 51.4349 13.1012 50.4768 13.8965C48.9897 15.1263 47.7305 16.6493 46.5384 18.1641C43.0802 22.5526 40.106 27.3121 37.2255 32.0901C34.0744 37.3149 31.082 42.6361 28.1568 47.9921C25.2518 53.3215 22.3672 58.6508 19.684 64.0909C18.7971 65.8885 17.9244 67.7026 17.0822 69.5309C18.9741 64.8643 20.7981 60.1704 22.5544 55.4491C27.1844 42.9948 31.4197 30.272 34.3796 17.295C34.798 15.4915 35.1105 13.6647 35.3153 11.8242C35.4842 10.2643 35.7466 8.16332 34.8556 6.76129C34.0887 5.55603 32.5508 5.70976 31.4319 6.2796C30.2521 6.89452 29.3712 7.99729 28.6633 9.09391C26.5151 12.4248 25.3454 16.4607 24.2611 20.2425C22.9653 24.752 21.9237 29.3414 20.8334 33.9103C18.7035 42.8267 16.059 51.6304 13.449 60.4136C11.4147 67.2229 9.41096 74.067 7.06952 80.782C7.5496 78.3039 7.9829 75.8175 8.41214 73.3353C9.59879 66.4522 10.6532 59.5514 11.5754 52.6328C12.5722 45.2536 13.4592 37.8745 14.1427 30.4626C14.7102 24.2928 15.1903 18.0903 15.1883 11.8898C15.2145 9.7363 15.1072 7.58328 14.8669 5.4433C14.6919 4.04946 14.4905 2.49575 13.748 1.27205C13.1561 0.296362 11.8216 -0.535841 10.8268 0.427544C9.86867 1.35403 9.54319 3.07583 9.2177 4.30978C7.65539 10.1844 6.8254 16.2967 5.93846 22.3128C4.73011 30.4893 3.70077 38.6924 2.73653 46.9098C1.92282 53.9672 1.14573 61.0327 0.523239 68.1105C0.319812 70.4021 0.116385 72.6999 0.0329795 74.9997C-0.0573045 77.8507 0.0378305 80.7046 0.317776 83.5431C0.504929 85.5129 0.712425 87.5462 1.22099 89.473C1.24133 90.4077 1.37356 91.3178 1.77431 92.0352C2.27068 92.9166 3.0498 92.9658 3.65398 92.5435L3.74756 92.523C4.44938 92.3181 4.87861 91.5535 5.20816 90.955C5.25902 90.8627 5.30377 90.7664 5.35259 90.6721C5.16544 91.287 4.97625 91.9163 4.7891 92.5374C4.73917 92.7102 4.73684 92.8934 4.78235 93.0675C4.82786 93.2415 4.9195 93.3998 5.04745 93.5254C6.42872 94.6384 7.99511 94.1731 9.30111 93.2261C9.29374 93.5193 9.38082 93.8069 9.54929 94.046C9.68559 94.9992 10.1026 95.8785 10.9875 96.4135C11.6264 96.7898 12.3717 96.9406 13.1052 96.8419C13.2005 96.8524 13.2962 96.8579 13.392 96.8583C13.2922 97.2959 13.3498 97.755 13.5548 98.1537C13.7572 98.4973 14.0549 98.7737 14.4112 98.949C14.5422 99.0451 14.6944 99.1077 14.8547 99.1315C16.0752 99.5291 17.7189 99.2954 18.7299 99.1315C20.0064 98.9321 21.2679 98.6451 22.5056 98.2726C22.3672 98.4489 22.2289 98.6252 22.0987 98.8035C20.8598 100.423 19.6576 102.083 18.5306 103.772C17.6701 105.07 16.8564 106.892 18.0647 108.261C19.0473 109.378 20.6361 109.341 21.9746 109.091C22.9169 108.911 23.8492 108.681 24.7677 108.402C24.5281 109.029 24.4431 109.704 24.52 110.371C24.5969 111.037 24.8334 111.675 25.2091 112.229C27.1905 115.304 31.0129 115.202 34.2067 114.79C35.4761 114.626 35.4923 112.59 34.2067 112.756C31.7818 113.07 27.8801 113.576 26.6799 110.706C26.1754 109.503 26.8263 108.327 27.6055 107.427C27.7906 107.357 27.9737 107.281 28.1588 107.207C30.5206 107.158 32.6159 105.568 34.5688 104.377C36.898 102.942 39.5934 102.165 42.0956 101.097C47.3227 98.8412 52.3698 96.183 57.1919 93.1462C66.7898 87.1054 75.4414 79.6583 82.8623 71.0498C84.78 68.821 86.6074 66.5192 88.3447 64.1442C90.4359 62.242 92.5156 60.3248 94.5838 58.3926C96.4146 56.679 98.2455 54.9244 99.8037 52.9382C100.886 51.5382 102.544 49.3286 101.612 47.4633ZM11.5469 94.0419C11.8209 93.9385 12.0874 93.8159 12.3444 93.675C12.261 93.841 12.1776 94.005 12.1003 94.1711C12.0392 94.3002 11.9721 94.4375 11.8968 94.581C11.7358 94.4349 11.6152 94.2491 11.5469 94.0419ZM48.7171 25.6334C47.4314 28.3616 46.097 31.0673 44.7666 33.773C42.0203 39.3538 39.2164 44.9045 36.3549 50.4252L36.1189 50.8782C29.772 61.9468 23.9377 73.5669 15.8555 83.4549C18.2966 78.761 20.75 74.0725 23.2155 69.3895C28.1303 60.0536 33.0749 50.7326 38.0494 41.4267C40.3481 37.1223 42.5879 32.7645 44.9863 28.5133C46.6951 25.4817 48.5544 22.5342 50.8104 19.9043C50.3913 21.8844 49.5857 23.7845 48.7171 25.6334ZM12.1552 90.6209C12.7919 89.969 13.4124 89.3008 14.0247 88.6429C15.408 87.1506 16.7303 85.599 17.9996 84.0063C17.1007 85.5357 16.1067 87.0063 15.0235 88.4092C14.1996 89.4546 13.0401 90.9816 11.7077 91.7954C11.8322 91.3948 11.9816 91.0025 12.1552 90.6209ZM66.5068 26.6685V26.728C66.5018 26.7064 66.5018 26.6839 66.5068 26.6624V26.6685ZM27.5383 83.4467C27.0643 84.0617 26.5782 84.6766 26.0777 85.2792C25.1949 86.2016 24.291 87.1049 23.3661 87.989C21.7309 89.5837 19.9612 91.0322 18.077 92.3181L17.9834 92.3796C19.6433 89.6431 21.4254 86.9785 23.2236 84.3343C28.8057 76.123 34.6644 68.0982 40.6065 60.1472C46.4204 52.3683 52.3259 44.6469 58.4775 37.1325C60.5505 34.599 62.6437 32.0676 64.8753 29.6714C65.1438 29.3844 65.4144 29.0995 65.689 28.8187C64.7973 30.506 63.8168 32.144 62.7515 33.7258C59.4255 38.8318 55.8167 43.7512 52.2262 48.6706C48.1577 54.2521 44.0403 59.7987 40.0206 65.4232C35.7914 71.3573 32.0259 77.6746 27.5383 83.4324V83.4467ZM44.9435 84.0104C40.1325 88.0751 34.6257 91.2624 28.8504 93.7447C28.9623 93.6156 29.0722 93.4844 29.1861 93.3573L30.2948 92.7239C35.4557 89.7538 40.4661 86.4127 45.0636 82.6186C47.6878 80.4541 50.0902 78.021 52.5171 75.6495C55.6228 72.6022 58.6918 69.5166 61.7242 66.3928C64.0623 63.9959 66.3915 61.5922 68.7119 59.1817C67.6677 60.3883 66.6221 61.5922 65.5751 62.7934C59.0817 70.2115 52.4886 77.6357 44.9435 84.0104ZM82.549 40.201C82.5673 40.201 82.5592 40.244 82.549 40.2789C82.5487 40.2734 82.5487 40.2679 82.549 40.2625C82.5483 40.2679 82.5483 40.2734 82.549 40.2789C82.5397 40.2538 82.5397 40.2261 82.549 40.201ZM79.3451 44.9462C75.3192 49.6114 70.8845 53.9548 66.6227 58.3987C60.9146 64.343 55.1678 70.2586 49.2501 75.9979C45.274 79.893 40.9605 83.4224 36.361 86.5439C35.5703 87.0768 34.7715 87.6036 33.9646 88.1243C40.0674 81.6696 46.5771 75.5675 52.8833 69.3178C60.4101 61.8362 67.9186 54.3054 75.6915 47.0718C77.6526 45.2454 79.697 43.2285 81.8126 41.6584C81.0846 42.8232 80.2591 43.9231 79.3451 44.9462ZM84.9739 37.1715C85.1488 37.1571 84.9983 37.2165 84.9739 37.1715V37.1715ZM38.7065 77.361C48.5035 67.4709 58.5406 57.7735 69.0496 48.6419C72.8191 45.3623 76.6436 42.0827 80.7914 39.293C81.4444 38.8564 82.1076 38.4321 82.7932 38.0487C83.0861 37.8848 83.3831 37.7297 83.6842 37.5835C83.8769 37.4758 84.0818 37.3918 84.2944 37.3334C84.4699 37.2748 84.6486 37.2263 84.8295 37.1879L84.9291 37.1756H84.9576C84.9576 37.2985 84.982 37.7905 84.9576 37.9401C84.8719 38.538 84.7141 39.1231 84.4877 39.6824C84.446 39.5561 84.39 39.4351 84.3209 39.3217C83.0779 37.2719 79.9228 40.5904 78.9565 41.4145C71.2263 47.9921 64.1064 55.3528 56.8949 62.4859C52.8548 66.483 48.8195 70.4841 44.7889 74.4893C39.7724 79.4518 34.6827 84.3425 29.9062 89.5427C29.2281 90.282 28.5555 91.0288 27.8882 91.7831C25.6833 93.0129 23.4175 94.1287 21.0999 95.1262C19.8884 95.6549 18.6498 96.1181 17.3894 96.5139C18.2984 95.7005 19.249 94.9356 20.2373 94.2223C22.3571 92.6583 24.5805 91.2358 26.6738 89.639C28.6206 88.155 30.1951 86.1258 31.8856 84.3609C34.1395 82.0051 36.4132 79.6718 38.7065 77.361ZM47.0083 45.5898C52.1327 38.8133 57.4116 31.838 63.7056 26.1007C64.643 25.212 65.6528 24.4043 66.7245 23.6861C67.1466 23.4075 67.5862 23.1569 68.0406 22.9359C68.301 22.8088 68.1078 22.899 68.1688 22.8765C68.2298 22.8539 68.3458 22.8047 68.4373 22.7781C68.6407 22.7166 68.8238 22.6653 69.0232 22.6223L69.2632 22.612H69.3873C69.4211 22.6296 69.4575 22.6414 69.4951 22.6469C69.5329 22.6605 69.5734 22.6647 69.6131 22.6592C69.6369 22.6844 69.662 22.7084 69.6884 22.7309L69.7209 22.7555C69.7392 22.7699 69.784 22.817 69.8206 22.856C69.8528 22.8996 69.8794 22.9471 69.8999 22.9974C69.8999 22.9974 69.8999 23.0199 69.8999 23.0343C69.9244 23.1265 69.9549 23.2188 69.9712 23.3151C69.9712 23.3479 69.9813 23.3684 69.9854 23.3828C69.9895 23.3971 69.9854 23.4217 69.9854 23.4504C70.0192 23.8825 69.9828 24.3173 69.8776 24.7376C69.2002 28.0336 67.3307 31.1103 65.6341 33.9964C63.0465 38.3972 60.1578 42.6197 57.1939 46.7725C51.561 54.6784 45.5782 62.3568 39.4042 69.8671C40.2993 68.5471 41.2046 67.2332 42.1301 65.9377C46.335 60.057 50.6476 54.2541 54.9013 48.4082C58.5264 43.4273 62.1941 38.4464 65.4795 33.2195C66.4661 31.6433 67.469 30.0281 68.1505 28.2858C68.4922 27.4126 68.895 25.9634 67.8718 25.371C66.4722 24.5511 64.5539 27.0621 63.7666 27.8943C58.2253 33.7525 53.3044 40.2666 48.3672 46.6352C41.6501 55.2906 35.097 64.0697 28.708 72.9725C23.9662 79.5891 19.0636 86.2405 15.0581 93.347C14.9055 93.6176 14.6919 93.962 14.4682 94.3391L14.2179 94.458L14.2607 94.374C14.757 93.4372 15.29 92.5292 15.827 91.6048C19.8773 84.7217 24.2815 78.0415 28.7243 71.4106C34.5973 62.6479 40.6472 53.9979 47.0083 45.5877V45.5898ZM67.4344 27.2322C67.5829 27.1113 67.4954 27.2219 67.4344 27.2322V27.2322ZM53.9635 14.3392C53.9452 14.3679 53.9269 14.3515 53.9126 14.3208C54.1303 14.2839 53.8943 14.4458 53.9635 14.3392ZM27.4671 53.5142C32.7664 43.6487 38.1694 33.7586 44.4492 24.4835C46.6198 21.2777 49.0345 17.543 52.0716 15.2022C52.472 14.9008 52.9021 14.6418 53.3552 14.4294C53.4657 14.3887 53.5794 14.3572 53.695 14.3351C53.6767 14.3351 53.5546 14.3351 53.7804 14.3351H53.8658C53.9309 14.3351 53.8903 14.3351 53.8658 14.3351C53.8414 14.3351 53.8658 14.3843 53.8658 14.4356C53.8713 14.6017 53.8665 14.7681 53.8516 14.9337C53.7581 15.6783 53.596 16.4125 53.3675 17.1269C53.2779 17.4282 53.1864 17.7295 53.0908 18.0288C53.1132 17.6926 53.1274 17.3544 53.1233 17.0142C53.1194 16.815 53.058 16.6214 52.9467 16.4568C52.8353 16.2923 52.6787 16.1641 52.4962 16.0877C52.3136 16.0114 52.1129 15.9903 51.9187 16.0271C51.7244 16.0638 51.545 16.1568 51.4023 16.2947C47.9848 19.6153 45.3809 23.6431 43.0618 27.7897C40.4376 32.4837 37.9762 37.2678 35.4394 42.013C30.1897 51.8614 24.9643 61.7234 19.7634 71.5991C17.801 75.3352 15.8467 79.0773 13.9006 82.8256C15.2404 78.8882 16.7817 75.0233 18.5184 71.2466C21.2545 65.208 24.3364 59.3457 27.4671 53.5142ZM10.4505 87.495C10.2308 88.3532 10.0307 89.2168 9.85037 90.0859C9.13634 90.834 8.17616 91.7605 7.40924 92.0905C9.31874 87.8544 11.1876 83.6005 13.0157 79.3288C12.0258 82.006 11.1696 84.7315 10.4505 87.495ZM31.0759 11.4737C31.0617 11.4532 31.0759 11.3527 31.0759 11.4737V11.4737ZM33.2384 7.87225C33.338 7.87225 33.2953 7.87225 33.2384 7.87225V7.87225ZM32.6728 7.9522C32.8287 7.89365 32.9949 7.86784 33.1611 7.87636C33.1906 7.91067 33.2134 7.95032 33.2282 7.99319C33.3531 8.74922 33.4164 9.51428 33.4174 10.2807C33.3044 12.2314 33.0254 14.1687 32.5833 16.0713C31.2834 22.1672 29.5055 28.1915 27.6767 34.144C23.5227 47.6621 18.5326 60.9097 13.0971 73.9523C12.4298 75.5511 11.7558 77.1471 11.075 78.7405L17.4951 57.5542C20.5811 48.6337 23.8116 39.7664 26.9972 30.8828C28.4212 26.894 29.8574 22.9031 31.1797 18.8774C31.9161 16.6391 32.86 14.2531 33.0695 11.8816C33.1448 11.0166 32.8986 10.2233 31.9669 9.96301C31.6568 9.87456 31.3285 9.87325 31.0176 9.95924C30.7067 10.0452 30.4251 10.2152 30.2032 10.4508L30.3151 10.2623C30.899 9.33578 31.731 8.26376 32.6769 7.9522H32.6728ZM29.1922 18.4551C29.599 16.7743 30.0059 15.0157 30.7138 13.4373L30.6162 13.8206C30.2643 15.1304 29.8554 16.4238 29.4383 17.7152C29.357 17.9591 29.2736 18.2133 29.1922 18.4551ZM31.6333 11.9369C31.6415 11.9207 31.6476 11.9034 31.6516 11.8857C31.6598 11.8283 31.6699 11.9 31.6374 11.9369H31.6333ZM27.9167 15.4482C27.4346 17.088 27.0562 18.7729 26.6168 20.4332C25.8743 23.2454 24.9894 26.031 24.1208 28.8146C25.2071 24.3174 26.3279 19.7977 27.9167 15.4482ZM12.2345 1.86442H12.2528H12.2345ZM11.2723 4.43686C11.3862 4.02691 11.5063 3.61696 11.6426 3.20701C11.6954 3.04713 11.7524 2.88725 11.8094 2.72942C11.8562 2.60234 11.9029 2.4937 11.9192 2.45475C11.9355 2.41581 11.9741 2.34202 12.0026 2.28462C12.0596 2.39121 12.1165 2.4896 12.1715 2.60233L12.2121 2.67408C12.2186 2.70145 12.2275 2.7282 12.2386 2.75402C12.2895 2.8934 12.3383 3.03483 12.381 3.17627C12.5801 3.85324 12.727 4.54469 12.8204 5.24447C12.8509 5.44944 12.9079 5.92294 12.9486 6.35954C12.9974 6.86173 13.034 7.36391 13.0625 7.8661C13.1276 8.97707 13.156 10.088 13.1662 11.2011C13.1866 13.9395 13.091 16.678 12.9445 19.4124C12.5885 26.1766 11.9274 32.9285 11.1726 39.6599C10.3589 46.9023 9.40418 54.1243 8.30839 61.3258C7.38076 67.4873 6.37787 73.6407 5.19799 79.7592C4.63857 82.6514 4.12389 85.6215 3.30408 88.4727C3.30408 87.4991 3.35697 86.5234 3.42004 85.5539C3.96319 77.1171 5.25088 68.7131 6.35549 60.3419C7.92187 48.5558 9.50657 36.7697 10.8309 24.9549C11.4859 19.0926 12.0759 13.2242 12.5539 7.34547C12.6454 6.20991 11.1299 6.06847 10.6641 6.90682C10.8472 6.08077 11.0465 5.25472 11.2723 4.43686ZM3.10269 62.1436C3.86215 54.5103 4.71858 46.888 5.67197 39.2766C6.62401 31.5941 7.64929 23.9157 8.90443 16.2762C9.38248 13.3697 9.88901 10.4631 10.5135 7.58324C9.4964 19.9515 8.01545 32.2766 6.42262 44.5793C5.05356 55.1478 3.54006 65.6917 2.30526 76.2849C2.21711 77.0378 2.13099 77.7894 2.0469 78.5396C1.94316 73.0647 2.56971 67.5878 3.10269 62.1436ZM86.7742 62.859C86.2026 63.3817 85.631 63.9023 85.0532 64.4188C73.4389 74.838 61.1373 84.4521 48.233 93.1954C43.4199 96.4545 38.5356 99.8386 33.3645 102.577C44.2397 93.6279 54.8504 84.3384 65.5303 75.1555C68.6916 72.4402 71.863 69.7366 75.0446 67.0446C75.3579 66.8109 75.6691 66.5772 75.9845 66.3477C80.6267 62.9492 85.4743 59.8233 90.6129 57.257C89.391 59.1633 88.1114 61.0306 86.7742 62.859ZM71.3728 79.8904C63.9741 86.5459 55.7277 92.1777 46.8517 96.6369C57.6394 89.5304 67.9715 81.6327 77.8377 73.3517C78.1733 73.0709 78.507 72.7859 78.8406 72.501C76.4713 75.0783 73.982 77.5414 71.3728 79.8904ZM99.8525 48.7731C99.7724 49.2032 99.6123 49.6143 99.3806 49.9845C98.8264 50.9413 98.1709 51.8347 97.4257 52.6492C96.1125 54.1185 94.7253 55.519 93.2696 56.845C93.5687 56.3633 93.8677 55.8816 94.1586 55.3958C94.7282 54.4468 93.6378 53.6248 92.7794 54.0061C91.152 54.7235 89.5571 55.5024 87.9927 56.3285C90.6983 54.1311 93.4588 51.9871 96.3923 50.1382C97.1903 49.6079 98.0306 49.1451 98.9046 48.7546C99.1842 48.6444 99.4702 48.5513 99.761 48.4759H99.818C99.835 48.574 99.8438 48.6734 99.8444 48.7731H99.8525ZM99.9441 48.4595C99.9848 48.4595 100.011 48.4595 100.011 48.4595C100.011 48.5128 99.9726 48.4964 99.9359 48.4595H99.9441Z" fill="#9CBFE1"/>
</svg>
