<svg width="20" height="24" viewBox="0 0 20 24" fill="none" xmlns="http://www.w3.org/2000/svg">
<path d="M17.1063 1.43044e-09H5.98068C5.24079 1.43044e-09 4.5312 0.293921 4.00802 0.817103C3.48484 1.34029 3.19092 2.04987 3.19092 2.78976V18.0219C3.19092 18.7618 3.48484 19.4714 4.00802 19.9945C4.5312 20.5177 5.24079 20.8116 5.98068 20.8116H17.1063C17.8462 20.8116 18.5557 20.5177 19.0789 19.9945C19.6021 19.4714 19.896 18.7618 19.896 18.0219V2.76745C19.8901 2.03143 19.5936 1.32756 19.0711 0.809197C18.5485 0.290831 17.8423 -2.35523e-05 17.1063 1.43044e-09ZM18.2222 18.0219C18.2222 18.3178 18.1046 18.6017 17.8953 18.8109C17.6861 19.0202 17.4022 19.1378 17.1063 19.1378H5.98068C5.68473 19.1378 5.40089 19.0202 5.19162 18.8109C4.98235 18.6017 4.86478 18.3178 4.86478 18.0219V2.76745C4.86478 2.47149 4.98235 2.18766 5.19162 1.97838C5.40089 1.76911 5.68473 1.65154 5.98068 1.65154H17.1063C17.4022 1.65154 17.6861 1.76911 17.8953 1.97838C18.1046 2.18766 18.2222 2.47149 18.2222 2.76745V18.0219Z" fill="#212121"/>
<path d="M13.8875 22.3206H2.78976C2.49381 22.3206 2.20997 22.203 2.0007 21.9937C1.79143 21.7844 1.67386 21.5006 1.67386 21.2047V5.98927C1.67386 5.76731 1.58568 5.55443 1.42873 5.39748C1.27177 5.24052 1.0589 5.15234 0.83693 5.15234C0.614962 5.15234 0.402086 5.24052 0.245131 5.39748C0.0881761 5.55443 0 5.76731 0 5.98927V21.2102C0 21.9501 0.293921 22.6597 0.817103 23.1829C1.34029 23.7061 2.04987 24 2.78976 24H13.8875C14.1102 24 14.3237 23.9115 14.4812 23.754C14.6387 23.5966 14.7272 23.383 14.7272 23.1603C14.7272 22.9376 14.6387 22.724 14.4812 22.5665C14.3237 22.409 14.1102 22.3206 13.8875 22.3206Z" fill="#212121"/>
</svg>
