<?xml version="1.0" encoding="utf-8"?>
<!-- Generator: Adobe Illustrator 25.0.1, SVG Export Plug-In . SVG Version: 6.00 Build 0)  -->
<svg version="1.1" id="Layer_1" xmlns="http://www.w3.org/2000/svg" xmlns:xlink="http://www.w3.org/1999/xlink" x="0px" y="0px"
	 viewBox="0 0 1920 1080" style="enable-background:new 0 0 1920 1080;" xml:space="preserve">
<style type="text/css">
	.st0{fill:#BAD262;}
	.st1{fill:#FFFFFF;}
</style>
<rect y="-0.48" class="st0" width="1920" height="1080.48"/>
<g>
	<polygon points="828.86,398.05 873.09,448.25 938.58,398.05 982.8,448.25 1157.12,398.05 1201.34,448.25 1290.26,398.05 
		1334.49,448.25 1192.43,681.48 1148.21,631.27 958.87,681.48 921.66,631.27 840.75,681.48 796.53,631.27 838.22,605.34 
		799.35,568.22 698.52,578.49 674.74,655.75 629.74,681.48 585.51,631.27 669.21,465.71 	"/>
	<polygon points="730.1,468.14 923.74,476.73 1007.27,430.9 1097.68,460.97 1209.97,497.82 1150.64,655.75 1056.68,647.16 
		900.06,601.33 781.75,562.43 689.63,546.13 	"/>
	<path d="M757.34,505.12l-9.78,37.36h71.01l-13.71,53.85h-71.01l-21.99,85.15h-82.12l60.27-233.23h183.08l-14.79,56.88H757.34z
		 M901.02,448.25l-60.27,233.23h81.78l60.27-233.23H901.02z M1201.34,448.25H1017.8l-14.79,56.88h89.86l-0.03,2.69L957.21,631.76
		l1.66,49.71h209l14.45-56.88h-107.7l-0.73-2.02l136.07-124.76L1201.34,448.25z M1252.71,448.25l-60.27,233.23h81.78l60.27-233.23
		H1252.71z"/>
	<path class="st1" d="M713.11,454.92l-9.78,37.36h71.01l-13.71,53.85h-71.01l-21.99,85.15h-82.12l60.27-233.23h183.08l-14.79,56.88
		H713.11z M856.8,398.05l-60.27,233.23h81.78l60.27-233.23H856.8z M1157.12,398.05H973.57l-14.79,56.88h89.86l-0.03,2.69
		L912.99,581.56l9.21,49.71h201.45l14.45-56.88h-107.7l-0.73-2.02l136.07-124.76L1157.12,398.05z M1208.48,398.05l-60.27,233.23
		h81.78l60.27-233.23H1208.48z"/>
</g>
<g>
	<polygon points="2982.93,398.05 3027.15,448.25 3092.64,398.05 3136.86,448.25 3311.18,398.05 3355.4,448.25 3444.32,398.05 
		3488.55,448.25 3346.5,681.48 3302.27,631.27 3112.94,681.48 3075.72,631.27 2994.81,681.48 2950.59,631.27 2992.29,605.34 
		2953.42,568.22 2852.59,578.49 2828.8,655.75 2783.8,681.48 2739.58,631.27 2823.27,465.71 	"/>
	<polygon points="2884.17,468.14 3077.8,476.73 3161.33,430.9 3251.74,460.97 3364.03,497.82 3304.71,655.75 3210.74,647.16 
		3054.12,601.33 2935.81,562.43 2843.69,546.13 	"/>
	<path d="M2911.4,505.12l-9.78,37.36h71.01l-13.71,53.85h-71.01l-21.99,85.15h-82.12l60.27-233.23h183.08l-14.79,56.88H2911.4z
		 M3055.08,448.25l-60.27,233.23h81.78l60.27-233.23H3055.08z M3355.4,448.25h-183.54l-14.79,56.88h89.86l-0.03,2.69l-135.63,123.95
		l1.66,49.71h209l14.45-56.88h-107.7l-0.73-2.02l136.07-124.76L3355.4,448.25z M3406.77,448.25l-60.27,233.23h81.78l60.27-233.23
		H3406.77z"/>
	<path class="st0" d="M2867.17,454.92l-9.78,37.36h71.01l-13.71,53.85h-71.01l-21.99,85.15h-82.12l60.27-233.23h183.08l-14.79,56.88
		H2867.17z M3010.86,398.05l-60.27,233.23h81.78l60.27-233.23H3010.86z M3311.18,398.05h-183.54l-14.79,56.88h89.86l-0.03,2.69
		l-135.63,123.95l9.21,49.71h201.45l14.45-56.88h-107.7l-0.73-2.02l136.07-124.76L3311.18,398.05z M3362.54,398.05l-60.27,233.23
		h81.78l60.27-233.23H3362.54z"/>
</g>
<text transform="matrix(1 0 0 1 2226.1086 91.6141)" style="font-family:'PFAgoraSansPro-BlackItalic'; font-size:43.1165px;">Logo</text>
</svg>
