<svg width="16" height="16" viewBox="0 0 16 16" fill="none" xmlns="http://www.w3.org/2000/svg">
<path d="M16 12L16 4C16 1.8 14.2 -7.86805e-08 12 -1.74846e-07L4 -5.24537e-07C1.8 -6.20702e-07 -7.86805e-08 1.8 -1.74846e-07 4L-5.24537e-07 12C-6.20702e-07 14.2 1.8 16 4 16L12 16C14.2 16 16 14.2 16 12ZM4.66 8C4.66 6.16 6.16 4.66 8 4.66C9.84 4.66 11.34 6.16 11.34 8C11.34 9.84 9.84 11.34 8 11.34C6.16 11.34 4.66 9.84 4.66 8ZM11.34 12.34C11.34 11.78 11.78 11.34 12.34 11.34C12.9 11.34 13.34 11.78 13.34 12.34C13.34 12.9 12.9 13.34 12.34 13.34C11.78 13.34 11.34 12.88 11.34 12.34Z" fill="#212121"/>
</svg>
