<svg width="225" height="40" viewBox="0 0 225 40" fill="none" xmlns="http://www.w3.org/2000/svg">
<path d="M222.821 24.8823C222.821 24.8823 222.783 16.6326 222.783 14.6408C222.783 10.2337 219.155 8.01392 214.647 8.01392C209.017 8.01392 206.512 10.9393 206.229 13.805H210.628C211.263 12.4373 212.402 12.1387 214.593 12.1387C217.365 12.1387 218.553 12.9311 218.553 14.2446C218.558 14.3968 218.531 14.5484 218.474 14.6896C218.417 14.8308 218.331 14.9584 218.222 15.0641C217.663 15.5069 216.997 15.7935 216.291 15.8945C215.295 16.092 214.285 16.2117 213.27 16.2527C212.776 16.2853 212.266 16.3179 211.751 16.3667C209.69 16.6326 204.83 17.5282 204.83 22.8796C204.83 26.3857 207.233 29.7181 212.749 29.7181C214.929 29.7141 217.044 28.9805 218.759 27.634C218.882 28.1987 219.075 28.7457 219.334 29.2622H223.646C223.217 28.5675 222.789 26.1686 222.821 24.8823ZM218.574 19.3355C218.574 19.4657 218.574 19.6014 218.574 19.7263V20.193C218.622 20.924 218.546 21.6578 218.352 22.364C218.188 22.8537 217.929 23.3059 217.589 23.6944C217.249 24.083 216.836 24.4 216.372 24.6272C215.302 25.2434 214.097 25.5846 212.863 25.6204C210.921 25.6204 209.245 24.3179 209.245 22.999C209.2 22.7214 209.213 22.4376 209.282 22.165C209.351 21.8924 209.475 21.6369 209.647 21.4142C210.129 20.983 210.713 20.6822 211.344 20.5404C212.223 20.3364 213.118 20.211 214.018 20.1659C214.669 20.1116 215.342 20.0573 215.998 19.9434C216.892 19.8236 217.761 19.5635 218.574 19.1727V19.3355Z" fill="#DD042B"/>
<path d="M115.461 20.7303C115.461 23.6394 114.018 25.615 111.176 25.615C108.524 25.615 107.243 23.8565 107.243 20.828V8.49695H102.904C102.904 8.49695 102.904 20.2256 102.904 20.9474C102.904 25.2894 105.22 29.7235 110.72 29.7235C112.487 29.7721 114.21 29.1716 115.564 28.0356V29.2514H119.832V8.49695H115.461C115.461 8.49695 115.461 19.6123 115.461 20.7303Z" fill="#DD042B"/>
<path d="M94.7746 20.7303C94.7746 23.6394 93.5054 25.615 90.9019 25.615C88.4015 25.615 87.3817 23.8565 87.3817 20.828V8.49695H83.0426V20.8117C83.0426 23.672 81.7517 25.6041 79.1753 25.6041C76.5989 25.6041 75.6497 23.8457 75.6497 20.8172C75.6497 18.9176 75.6497 8.49695 75.6497 8.49695H71.3105V20.9474C71.3105 25.2894 73.4801 29.7235 78.7197 29.7235C81.2364 29.7235 83.6012 28.3721 84.686 26.8036C85.3195 27.7422 86.1822 28.5032 87.1923 29.0142C88.2023 29.5253 89.3262 29.7695 90.4571 29.7235C92.0977 29.7513 93.6862 29.147 94.8939 28.0356V29.2514H99.1897V8.49695H94.7855C94.7855 8.49695 94.7746 19.6123 94.7746 20.7303Z" fill="#DD042B"/>
<path d="M194.905 17.2894L205.579 29.2297H199.532L190.983 19.5146V29.2622H186.568V1.14282H190.973V15.4169L198.447 8.01392H204.5L194.905 17.2894Z" fill="#DD042B"/>
<path d="M35.858 8.01392C29.8916 8.01392 25.2812 12.8986 25.2812 18.8687C25.2812 24.8389 29.8645 29.7236 35.858 29.7236C41.8515 29.7236 46.4347 24.8389 46.4347 18.8687C46.4347 12.8986 41.8515 8.01392 35.858 8.01392ZM35.858 25.6096C32.2944 25.6096 29.6801 22.5594 29.6801 18.8742C29.6801 15.189 32.2944 12.1442 35.858 12.1442C39.4215 12.1442 42.0359 15.1944 42.0359 18.8742C42.0359 22.5539 39.4161 25.6096 35.858 25.6096Z" fill="#DD042B"/>
<path d="M137.102 8.49695H141.495V29.2622H137.102V20.5132H128.554V29.2622H124.139V8.49695H128.543V16.3993H137.102V8.49695Z" fill="#DD042B"/>
<path d="M176.268 14.1523H171.506V8.49695H167.102V29.7398H176.268C178.334 29.7398 180.315 28.9187 181.776 27.4571C183.236 25.9955 184.057 24.0131 184.057 21.9461C184.057 19.879 183.236 17.8967 181.776 16.435C180.315 14.9734 178.334 14.1523 176.268 14.1523ZM175.97 25.6258H171.506V18.2663H175.97C176.945 18.2663 177.88 18.654 178.57 19.3441C179.26 20.0342 179.647 20.9701 179.647 21.9461C179.647 22.922 179.26 23.858 178.57 24.5481C177.88 25.2382 176.945 25.6258 175.97 25.6258Z" fill="#DD042B"/>
<path d="M154.664 25.6096C151.101 25.6096 148.991 22.5594 148.991 18.8742C148.991 15.189 151.101 12.1442 154.664 12.1442C157.588 12.1442 158.884 13.2622 159.41 14.478H163.912C163.25 10.999 159.736 8.01392 154.664 8.01392C148.665 8.01392 144.592 12.8986 144.592 18.8687C144.592 24.8389 148.665 29.7236 154.664 29.7236C159.931 29.7236 163.37 26.7005 163.999 22.5865H159.519C159.041 24.2799 157.636 25.6096 154.664 25.6096Z" fill="#DD042B"/>
<path d="M58.726 8.00854C56.7021 7.96668 54.738 8.69618 53.2315 10.0492C53.2315 9.9407 53.2315 9.82672 53.2315 9.71818V8.49701H48.9629V36.6164H53.3671V27.824C54.8602 29.0939 56.7669 29.7717 58.726 29.729C64.6924 29.729 68.6953 24.8444 68.6953 18.8742C68.6953 12.9041 64.7195 8.00854 58.726 8.00854ZM58.726 25.6042C55.1679 25.6042 53.1556 22.5486 53.1556 18.8688C53.1556 15.189 55.1679 12.1334 58.726 12.1334C62.2841 12.1334 64.2964 15.189 64.2964 18.8688C64.2964 22.5486 62.3058 25.6042 58.726 25.6042Z" fill="#DD042B"/>
<path d="M18.512 8.53491L18.2137 8.86056L12.6433 14.8633C12.1554 15.3953 11.7127 15.9672 11.3198 16.5729C10.9219 15.9679 10.4757 15.3962 9.98552 14.8633L4.39884 8.86056L4.09509 8.53491H0V29.2622H4.39884V15.2215C5.34542 16.1005 6.22476 17.0493 7.02946 18.06C8.33058 19.6978 9.19302 21.6405 9.53533 23.7045H13.0772C13.4172 21.6398 14.2799 19.6966 15.5831 18.06C16.3877 17.0493 17.2671 16.1005 18.2137 15.2215V29.2622H22.6071V8.53491H18.512Z" fill="#DD042B"/>
</svg>
