<svg width="24" height="24" viewBox="0 0 24 24" fill="none" xmlns="http://www.w3.org/2000/svg">
<path d="M21.7667 12H1.23333C1.10453 12 1 12 1 12C1 12 1.10453 12 1.23333 12H21.7667C21.8957 12 22 12 22 12C22 12 21.8957 12 21.7667 12Z" fill="#212121"/>
<path d="M21.7667 12H1.23333C1.10453 12 1 12 1 12C1 12 1.10453 12 1.23333 12H21.7667C21.8957 12 22 12 22 12C22 12 21.8957 12 21.7667 12Z" stroke="#212121"/>
<path d="M19.2509 15C19.1867 15 19.1225 14.9803 19.0736 14.9412C18.9755 14.8627 18.9755 14.7358 19.0736 14.6573L22.3943 12L19.0736 9.34275C18.9755 9.26425 18.9755 9.13737 19.0736 9.05887C19.1717 8.98038 19.3302 8.98038 19.4283 9.05887L22.9264 11.8581C23.0245 11.9366 23.0245 12.0635 22.9264 12.142L19.4283 14.9412C19.3792 14.9805 19.3152 15 19.2509 15Z" fill="#212121" stroke="#212121" stroke-width="0.5"/>
</svg>
