<svg width="16" height="13" viewBox="0 0 16 13" fill="none" xmlns="http://www.w3.org/2000/svg">
<path d="M1.02435 5.66493C1.02435 5.66493 7.92088 2.83458 10.3127 1.83794C11.2296 1.43932 14.339 0.16362 14.339 0.16362C14.339 0.16362 15.7741 -0.39445 15.6545 0.960919C15.6146 1.51904 15.2957 3.47237 14.9768 5.58521C14.4984 8.57506 13.9802 11.8439 13.9802 11.8439C13.9802 11.8439 13.9005 12.7608 13.2228 12.9203C12.5451 13.0797 11.4289 12.3622 11.2296 12.2027C11.0701 12.0832 8.23977 10.2892 7.20331 9.4122C6.92425 9.17302 6.60535 8.69468 7.24314 8.13655C8.67828 6.82102 10.3924 5.18659 11.4289 4.15011C11.9073 3.67171 12.3856 2.55552 10.3924 3.91088C7.56209 5.86427 4.77159 7.69804 4.77159 7.69804C4.77159 7.69804 4.13375 8.09666 2.93784 7.73787C1.74187 7.37914 0.34662 6.90074 0.34662 6.90074C0.34662 6.90074 -0.610066 6.30278 1.02435 5.66493Z" fill="#212121"/>
</svg>
