<svg width="16" height="14" viewBox="0 0 16 14" fill="none" xmlns="http://www.w3.org/2000/svg">
<path d="M4.82192 10.4326C3.86034 10.4326 3.02662 9.89583 2.53379 9.04304C2.82193 9.03135 3.10974 8.98458 3.38349 8.88635L4.94772 8.32502L3.33344 7.93006C2.25169 7.66539 1.46234 6.80173 1.18912 5.72317C1.46839 5.80654 1.75697 5.84831 2.04566 5.84831H3.6323L2.33233 4.93865C1.30136 4.21723 0.85686 2.82533 1.17266 1.5941C2.85311 3.45629 5.22274 4.67571 7.7883 4.825L8.434 4.86257L8.30773 4.22823C7.91994 2.28004 9.28251 0.5 11.032 0.5C11.8428 0.5 12.5742 0.834299 13.0574 1.41947L13.2469 1.64899L13.539 1.59181C13.7997 1.54078 14.0457 1.47468 14.2806 1.39629C14.1359 1.54196 13.9782 1.67453 13.8089 1.79603L14.1598 2.69871C14.3061 2.68121 14.4537 2.65989 14.6019 2.63379C14.4444 2.78686 14.278 2.92752 14.1012 3.05447L13.8812 3.21232L13.8932 3.48277C14.1039 8.2466 10.8078 13.5 5.04109 13.5C3.92062 13.5 2.83074 13.2808 1.82747 12.8634C3.04528 12.6679 4.20283 12.1597 5.15581 11.3048L6.12801 10.4326H4.82192Z" fill="#212121" stroke="#212121"/>
</svg>
